<svg width="720" height="236" viewBox="0 0 720 236" fill="none" xmlns="http://www.w3.org/2000/svg">
<rect width="720" height="236" fill="#FEEC9A"/>
<path d="M249.96 115.2C249.96 115.467 249.827 115.68 249.56 115.84C249.347 116 249.08 116.133 248.76 116.24C248.494 116.347 248.2 116.48 247.88 116.64C247.56 116.747 247.32 116.88 247.16 117.04L247.72 120.8C248.04 122.88 248.307 124.907 248.52 126.88C248.787 128.853 248.92 130.72 248.92 132.48C248.92 133.867 248.76 135.12 248.44 136.24C248.174 137.307 247.667 137.84 246.92 137.84C246.547 137.84 246.2 137.387 245.88 136.48C245.614 135.52 245.374 134.453 245.16 133.28C245 132.053 244.867 130.853 244.76 129.68C244.707 128.453 244.68 127.573 244.68 127.04C244.68 126.667 244.654 126.08 244.6 125.28C244.547 124.427 244.467 123.547 244.36 122.64C244.254 121.68 244.147 120.8 244.04 120C243.934 119.147 243.854 118.507 243.8 118.08C242.894 118.133 241.667 118.267 240.12 118.48C238.574 118.64 236.68 119.013 234.44 119.6V120.56C234.44 121.733 234.494 123.04 234.6 124.48C234.707 125.867 234.814 127.307 234.92 128.8C235.08 130.24 235.214 131.707 235.32 133.2C235.427 134.64 235.48 136.027 235.48 137.36C235.48 137.893 235.427 138.32 235.32 138.64C235.214 139.013 234.974 139.2 234.6 139.2C233.96 139.2 233.454 138.88 233.08 138.24C232.76 137.6 232.52 136.853 232.36 136C232.2 135.093 232.067 134.16 231.96 133.2C231.907 132.24 231.854 131.44 231.8 130.8C231.587 129.413 231.4 127.813 231.24 126C231.134 124.133 231.027 122.24 230.92 120.32C230.707 120.32 230.44 120.267 230.12 120.16C229.8 120 229.48 119.84 229.16 119.68C228.84 119.467 228.574 119.253 228.36 119.04C228.147 118.827 228.04 118.587 228.04 118.32C228.04 117.68 228.334 117.173 228.92 116.8C229.507 116.373 230.147 116.027 230.84 115.76C230.787 115.28 230.76 114.773 230.76 114.24C230.76 113.653 230.76 112.667 230.76 111.28C230.76 110.693 230.76 109.84 230.76 108.72C230.76 107.547 230.76 106.24 230.76 104.8C230.76 103.307 230.76 101.68 230.76 99.92C230.814 98.16 230.84 96.3733 230.84 94.56C230.894 94.1333 231.027 93.6267 231.24 93.04C231.454 92.4 231.8 92.08 232.28 92.08C232.654 92.08 232.974 92.24 233.24 92.56C233.507 92.8267 233.72 93.1733 233.88 93.6C234.04 94.0267 234.147 94.48 234.2 94.96C234.307 95.3867 234.36 95.76 234.36 96.08V115.2C234.84 115.2 235.48 115.173 236.28 115.12C237.08 115.067 237.907 115.013 238.76 114.96C239.614 114.853 240.44 114.747 241.24 114.64C242.094 114.533 242.787 114.427 243.32 114.32L241.48 97.52C241.427 97.1467 241.374 96.7467 241.32 96.32C241.32 95.8933 241.32 95.5467 241.32 95.28C241.32 94.2133 241.454 93.36 241.72 92.72C242.04 92.0267 242.494 91.68 243.08 91.68C243.827 91.68 244.28 92.0267 244.44 92.72C244.6 93.4133 244.707 94.4267 244.76 95.76C244.814 96.6133 244.867 97.4667 244.92 98.32C244.974 99.12 245.054 99.92 245.16 100.72L247 114.24C247.64 114.24 248.28 114.293 248.92 114.4C249.614 114.453 249.96 114.72 249.96 115.2ZM279.407 129.6C279.461 129.707 279.487 129.867 279.487 130.08C279.487 130.4 279.247 130.88 278.767 131.52C278.607 131.733 278.261 132.08 277.727 132.56C277.194 133.04 276.474 133.52 275.567 134C274.661 134.48 273.541 134.907 272.207 135.28C270.927 135.653 269.407 135.84 267.647 135.84C266.421 135.84 265.221 135.573 264.047 135.04C262.874 134.453 261.834 133.627 260.927 132.56C260.021 131.44 259.274 130.08 258.687 128.48C258.101 126.827 257.807 124.907 257.807 122.72C257.807 120.64 258.074 118.693 258.607 116.88C259.141 115.067 259.807 113.467 260.607 112.08C261.461 110.693 262.394 109.6 263.407 108.8C264.421 108 265.407 107.6 266.367 107.6C267.221 107.6 268.074 107.787 268.927 108.16C269.834 108.48 270.634 108.907 271.327 109.44C272.074 109.973 272.661 110.587 273.087 111.28C273.514 111.92 273.727 112.587 273.727 113.28C273.727 114.08 273.354 114.907 272.607 115.76C271.914 116.613 271.061 117.413 270.047 118.16C269.034 118.853 268.021 119.44 267.007 119.92C265.994 120.347 265.194 120.56 264.607 120.56C264.287 120.56 263.994 120.427 263.727 120.16C263.514 119.84 263.407 119.467 263.407 119.04C263.407 118.293 263.727 117.707 264.367 117.28C265.061 116.853 265.807 116.48 266.607 116.16C267.407 115.787 268.127 115.36 268.767 114.88C269.461 114.4 269.807 113.733 269.807 112.88C269.807 112.773 269.674 112.507 269.407 112.08C269.141 111.653 268.421 111.44 267.247 111.44C266.714 111.44 266.101 111.76 265.407 112.4C264.714 112.987 264.047 113.813 263.407 114.88C262.767 115.893 262.234 117.12 261.807 118.56C261.381 119.947 261.167 121.467 261.167 123.12C261.167 124.507 261.407 125.76 261.887 126.88C262.421 128 263.087 128.96 263.887 129.76C264.687 130.507 265.621 131.093 266.687 131.52C267.754 131.947 268.847 132.16 269.967 132.16C270.767 132.16 271.621 132 272.527 131.68C273.487 131.307 274.367 130.933 275.167 130.56C276.021 130.133 276.741 129.76 277.327 129.44C277.967 129.067 278.367 128.88 278.527 128.88C278.687 128.88 278.847 128.96 279.007 129.12C279.221 129.28 279.354 129.44 279.407 129.6ZM295.798 135.68C295.798 136.107 295.638 136.427 295.318 136.64C294.998 136.853 294.624 136.96 294.198 136.96C293.718 136.96 293.211 136.507 292.678 135.6C292.198 134.693 291.718 133.547 291.238 132.16C290.758 130.773 290.304 129.28 289.878 127.68C289.451 126.027 289.078 124.507 288.758 123.12C288.438 121.68 288.171 120.48 287.958 119.52C287.798 118.56 287.718 118.027 287.718 117.92C287.718 117.707 287.611 117.147 287.398 116.24C287.238 115.333 286.998 113.92 286.678 112C286.411 110.08 286.091 107.6 285.718 104.56C285.398 101.467 285.051 97.6533 284.678 93.12C284.678 92.64 284.758 92.0267 284.918 91.28C285.078 90.5333 285.451 90.16 286.038 90.16C286.784 90.16 287.344 90.6667 287.718 91.68C288.144 92.6933 288.464 93.9467 288.678 95.44C288.944 96.9333 289.131 98.5067 289.238 100.16C289.344 101.76 289.478 103.173 289.638 104.4C289.851 106.107 290.038 107.653 290.198 109.04C290.411 110.427 290.598 111.813 290.758 113.2C290.971 114.533 291.211 115.947 291.478 117.44C291.798 118.933 292.171 120.587 292.598 122.4L295.798 135.68ZM312.773 135.68C312.773 136.107 312.613 136.427 312.293 136.64C311.973 136.853 311.599 136.96 311.173 136.96C310.693 136.96 310.186 136.507 309.653 135.6C309.173 134.693 308.693 133.547 308.213 132.16C307.733 130.773 307.279 129.28 306.853 127.68C306.426 126.027 306.053 124.507 305.733 123.12C305.413 121.68 305.146 120.48 304.933 119.52C304.773 118.56 304.693 118.027 304.693 117.92C304.693 117.707 304.586 117.147 304.373 116.24C304.213 115.333 303.973 113.92 303.653 112C303.386 110.08 303.066 107.6 302.693 104.56C302.373 101.467 302.026 97.6533 301.653 93.12C301.653 92.64 301.733 92.0267 301.893 91.28C302.053 90.5333 302.426 90.16 303.013 90.16C303.759 90.16 304.319 90.6667 304.693 91.68C305.119 92.6933 305.439 93.9467 305.653 95.44C305.919 96.9333 306.106 98.5067 306.213 100.16C306.319 101.76 306.453 103.173 306.613 104.4C306.826 106.107 307.013 107.653 307.173 109.04C307.386 110.427 307.573 111.813 307.733 113.2C307.946 114.533 308.186 115.947 308.453 117.44C308.773 118.933 309.146 120.587 309.573 122.4L312.773 135.68ZM333.428 120.72C333.428 121.893 333.268 123.013 332.948 124.08C332.628 125.147 332.201 126.08 331.668 126.88C331.134 127.68 330.494 128.32 329.748 128.8C329.054 129.227 328.281 129.44 327.428 129.44C325.934 129.44 324.761 129.013 323.908 128.16C323.054 127.307 322.388 126.32 321.908 125.2C321.481 124.08 321.188 122.96 321.028 121.84C320.921 120.667 320.868 119.787 320.868 119.2C320.868 118.24 321.001 117.173 321.268 116C321.588 114.773 321.988 113.653 322.468 112.64C323.001 111.627 323.588 110.773 324.228 110.08C324.868 109.387 325.534 109.04 326.228 109.04C326.388 109.04 326.628 109.093 326.948 109.2C327.321 109.307 327.694 109.467 328.068 109.68C328.441 109.893 328.761 110.16 329.028 110.48C329.348 110.8 329.561 111.173 329.668 111.6C330.254 111.653 330.841 111.867 331.428 112.24C332.014 112.613 332.334 112.907 332.388 113.12C332.814 114.507 333.081 115.893 333.188 117.28C333.348 118.667 333.428 119.813 333.428 120.72ZM329.828 119.28C329.828 118.48 329.748 117.653 329.588 116.8C329.428 115.893 329.108 114.987 328.628 114.08C328.521 114.133 328.388 114.16 328.228 114.16C328.014 114.16 327.828 114.133 327.668 114.08C327.561 114.027 327.454 114 327.348 114C326.708 114 326.201 114.187 325.828 114.56C325.454 114.88 325.161 115.333 324.948 115.92C324.788 116.453 324.681 117.04 324.628 117.68C324.574 118.32 324.548 118.933 324.548 119.52C324.548 120.107 324.574 120.773 324.628 121.52C324.681 122.213 324.788 122.88 324.948 123.52C325.161 124.16 325.428 124.72 325.748 125.2C326.068 125.627 326.494 125.84 327.028 125.84C327.561 125.84 328.014 125.573 328.388 125.04C328.761 124.453 329.054 123.787 329.268 123.04C329.481 122.293 329.614 121.573 329.668 120.88C329.774 120.133 329.828 119.6 329.828 119.28ZM399.015 102.8C399.228 102.853 399.335 103.013 399.335 103.28C399.335 103.653 399.148 104.053 398.775 104.48C398.401 104.853 398.215 105.28 398.215 105.76C398.215 105.867 398.188 106.267 398.135 106.96C398.135 107.653 398.135 108.427 398.135 109.28C398.135 110.133 398.108 110.933 398.055 111.68C398.055 112.427 398.055 112.853 398.055 112.96V120.88C398.055 120.933 398.028 121.307 397.975 122C397.921 122.693 397.815 123.52 397.655 124.48C397.548 125.44 397.415 126.453 397.255 127.52C397.148 128.533 397.015 129.413 396.855 130.16C396.801 130.373 396.641 130.533 396.375 130.64C396.161 130.747 395.895 130.853 395.575 130.96C395.308 131.013 395.041 131.067 394.775 131.12C394.508 131.12 394.348 131.12 394.295 131.12C393.708 131.12 393.068 130.773 392.375 130.08C391.735 129.387 391.121 128.613 390.535 127.76C389.948 126.907 389.441 126.107 389.015 125.36C388.588 124.613 388.348 124.187 388.295 124.08C388.081 124.827 387.841 125.6 387.575 126.4C387.308 127.147 387.015 127.84 386.695 128.48C386.375 129.12 386.001 129.653 385.575 130.08C385.201 130.507 384.775 130.72 384.295 130.72C383.655 130.72 382.988 130.4 382.295 129.76C381.601 129.12 380.881 128.293 380.135 127.28C379.441 126.267 378.775 125.147 378.135 123.92C377.495 122.64 376.935 121.413 376.455 120.24C375.975 119.067 375.575 117.973 375.255 116.96C374.988 115.947 374.855 115.147 374.855 114.56C374.855 114.347 374.961 114.08 375.175 113.76C375.388 113.44 375.681 113.28 376.055 113.28C376.801 113.28 377.335 113.52 377.655 114C377.708 114.053 377.868 114.533 378.135 115.44C378.455 116.347 378.881 117.413 379.415 118.64C379.948 119.867 380.561 121.147 381.255 122.48C382.001 123.76 382.828 124.853 383.735 125.76C384.108 125.067 384.401 124.293 384.615 123.44C384.881 122.587 385.095 121.76 385.255 120.96C385.415 120.16 385.521 119.44 385.575 118.8C385.628 118.107 385.655 117.547 385.655 117.12C385.548 116.693 385.468 116.267 385.415 115.84C385.361 115.467 385.308 115.093 385.255 114.72C385.255 114.347 385.255 114.027 385.255 113.76C385.255 112.427 385.788 111.76 386.855 111.76C387.655 111.76 388.268 112.027 388.695 112.56C389.121 113.04 389.441 113.627 389.655 114.32C389.868 114.96 390.001 115.6 390.055 116.24C390.161 116.88 390.268 117.333 390.375 117.6C390.801 118.827 391.175 119.973 391.495 121.04C391.868 122.107 392.481 123.2 393.335 124.32C393.548 124.16 393.708 123.893 393.815 123.52C393.975 123.093 394.081 122.667 394.135 122.24C394.188 121.813 394.215 121.44 394.215 121.12C394.215 120.747 394.215 120.48 394.215 120.32V104.4C394.215 104.08 394.348 103.787 394.615 103.52C394.881 103.253 395.201 103.013 395.575 102.8C395.948 102.587 396.295 102.427 396.615 102.32C396.988 102.16 397.255 102.08 397.415 102.08C397.681 102.08 397.921 102.16 398.135 102.32C398.401 102.48 398.695 102.64 399.015 102.8ZM420.212 120.72C420.212 121.893 420.052 123.013 419.732 124.08C419.412 125.147 418.986 126.08 418.452 126.88C417.919 127.68 417.279 128.32 416.532 128.8C415.839 129.227 415.066 129.44 414.212 129.44C412.719 129.44 411.546 129.013 410.692 128.16C409.839 127.307 409.172 126.32 408.692 125.2C408.266 124.08 407.972 122.96 407.812 121.84C407.706 120.667 407.652 119.787 407.652 119.2C407.652 118.24 407.786 117.173 408.052 116C408.372 114.773 408.772 113.653 409.252 112.64C409.786 111.627 410.372 110.773 411.012 110.08C411.652 109.387 412.319 109.04 413.012 109.04C413.172 109.04 413.412 109.093 413.732 109.2C414.106 109.307 414.479 109.467 414.852 109.68C415.226 109.893 415.546 110.16 415.812 110.48C416.132 110.8 416.346 111.173 416.452 111.6C417.039 111.653 417.626 111.867 418.212 112.24C418.799 112.613 419.119 112.907 419.172 113.12C419.599 114.507 419.866 115.893 419.972 117.28C420.132 118.667 420.212 119.813 420.212 120.72ZM416.612 119.28C416.612 118.48 416.532 117.653 416.372 116.8C416.212 115.893 415.892 114.987 415.412 114.08C415.306 114.133 415.172 114.16 415.012 114.16C414.799 114.16 414.612 114.133 414.452 114.08C414.346 114.027 414.239 114 414.132 114C413.492 114 412.986 114.187 412.612 114.56C412.239 114.88 411.946 115.333 411.732 115.92C411.572 116.453 411.466 117.04 411.412 117.68C411.359 118.32 411.332 118.933 411.332 119.52C411.332 120.107 411.359 120.773 411.412 121.52C411.466 122.213 411.572 122.88 411.732 123.52C411.946 124.16 412.212 124.72 412.532 125.2C412.852 125.627 413.279 125.84 413.812 125.84C414.346 125.84 414.799 125.573 415.172 125.04C415.546 124.453 415.839 123.787 416.052 123.04C416.266 122.293 416.399 121.573 416.452 120.88C416.559 120.133 416.612 119.6 416.612 119.28ZM447.294 113.6C447.294 113.973 447.134 114.293 446.814 114.56C446.494 114.773 446.121 114.96 445.694 115.12C445.267 115.28 444.841 115.413 444.414 115.52C443.987 115.573 443.641 115.6 443.374 115.6C442.574 115.6 442.041 115.547 441.774 115.44C441.507 115.333 441.294 115.28 441.134 115.28C439.801 115.28 438.734 115.387 437.934 115.6C437.134 115.813 436.494 116.16 436.014 116.64C435.587 117.12 435.294 117.733 435.134 118.48C435.027 119.173 434.974 120.027 434.974 121.04C434.974 122.747 435.027 124.107 435.134 125.12C435.294 126.133 435.427 126.96 435.534 127.6C435.694 128.24 435.827 128.747 435.934 129.12C436.094 129.44 436.174 129.76 436.174 130.08C436.174 130.507 435.934 130.96 435.454 131.44C435.027 131.92 434.627 132.16 434.254 132.16C433.614 132.16 433.027 131.6 432.494 130.48C432.014 129.307 431.587 127.947 431.214 126.4C430.894 124.8 430.627 123.227 430.414 121.68C430.201 120.133 430.094 118.96 430.094 118.16C430.094 117.253 430.174 116.4 430.334 115.6C430.494 114.747 430.707 114.027 430.974 113.44C431.241 112.8 431.534 112.293 431.854 111.92C432.174 111.547 432.494 111.36 432.814 111.36C433.081 111.36 433.294 111.467 433.454 111.68C433.614 111.84 433.747 112.053 433.854 112.32C433.961 112.533 434.067 112.747 434.174 112.96C434.334 113.12 434.521 113.2 434.734 113.2C435.214 113.2 435.987 112.96 437.054 112.48C438.121 112 439.427 111.76 440.974 111.76C442.414 111.76 443.481 111.813 444.174 111.92C444.921 111.973 445.641 112.133 446.334 112.4C446.494 112.453 446.681 112.587 446.894 112.8C447.161 112.96 447.294 113.227 447.294 113.6ZM476.467 125.12C476.467 125.387 476.333 125.653 476.067 125.92C475.853 126.133 475.72 126.373 475.667 126.64C475.667 127.227 475.773 127.787 475.987 128.32C476.253 128.853 476.387 129.493 476.387 130.24C476.387 130.933 476.173 131.28 475.747 131.28C475.213 131.28 474.813 131.36 474.547 131.52C474.333 131.627 473.933 131.733 473.347 131.84C473.027 131.84 472.68 131.547 472.307 130.96C472.093 130.693 471.907 130.373 471.747 130C471.747 129.947 471.587 130.053 471.267 130.32C471 130.587 470.52 130.907 469.827 131.28C469.187 131.6 468.28 131.92 467.107 132.24C465.987 132.507 464.547 132.64 462.787 132.64C461.293 132.64 459.987 132.32 458.867 131.68C457.747 130.987 456.813 130.107 456.067 129.04C455.373 127.973 454.84 126.773 454.467 125.44C454.147 124.053 453.987 122.667 453.987 121.28C453.987 120 454.12 118.8 454.387 117.68C454.707 116.507 455.133 115.493 455.667 114.64C456.2 113.733 456.867 113.013 457.667 112.48C458.467 111.947 459.4 111.68 460.467 111.68C461.48 111.68 462.493 112 463.507 112.64C464.52 113.28 465.427 113.973 466.227 114.72C467.027 115.467 467.667 116.16 468.147 116.8C468.68 117.387 468.947 117.68 468.947 117.68C468.2 113.52 467.533 109.76 466.947 106.4C466.68 104.96 466.413 103.547 466.147 102.16C465.933 100.72 465.72 99.44 465.507 98.32C465.293 97.2 465.107 96.2667 464.947 95.52C464.84 94.72 464.787 94.24 464.787 94.08C464.733 93.76 464.68 93.2 464.627 92.4C464.573 91.5467 464.52 90.6667 464.467 89.76C464.413 88.8533 464.36 88.0267 464.307 87.28C464.253 86.5333 464.2 86.0533 464.147 85.84C463.987 85.3067 463.773 84.64 463.507 83.84C463.293 83.04 463.187 82.5867 463.187 82.48C463.187 82.2133 463.32 81.8933 463.587 81.52C463.853 81.0933 464.2 80.88 464.627 80.88C464.947 80.88 465.24 80.9067 465.507 80.96C465.773 81.0133 466.013 81.1733 466.227 81.44C466.44 81.7067 466.627 82.1333 466.787 82.72C467 83.2533 467.187 84.0267 467.347 85.04C467.4 85.5733 467.56 86.5867 467.827 88.08C468.093 89.5733 468.36 91.2 468.627 92.96C468.893 94.72 469.16 96.4 469.427 98C469.693 99.6 469.88 100.773 469.987 101.52C470.253 103.547 470.6 105.76 471.027 108.16C471.507 110.507 471.987 112.773 472.467 114.96C472.947 117.147 473.427 119.093 473.907 120.8C474.387 122.453 474.813 123.573 475.187 124.16C475.293 124.373 475.507 124.533 475.827 124.64C476.147 124.693 476.36 124.853 476.467 125.12ZM470.547 126.72C470.493 126.56 470.147 125.893 469.507 124.72C468.92 123.493 468.147 122.187 467.187 120.8C466.28 119.36 465.24 118.08 464.067 116.96C462.947 115.84 461.853 115.28 460.787 115.28C459.88 115.28 459.133 115.973 458.547 117.36C458.013 118.747 457.747 120.347 457.747 122.16C457.747 124.187 458.333 125.813 459.507 127.04C460.733 128.267 462.093 128.88 463.587 128.88C464.867 128.88 466.2 128.667 467.587 128.24C468.973 127.813 469.96 127.307 470.547 126.72ZM491.555 99.36C491.555 99.84 491.315 100.88 490.835 102.48C490.355 104.08 489.821 105.867 489.235 107.84C488.701 109.76 488.195 111.653 487.715 113.52C487.288 115.387 487.075 116.853 487.075 117.92C487.075 119.04 487.128 119.973 487.235 120.72C487.341 121.413 487.448 122 487.555 122.48C487.715 122.96 487.848 123.387 487.955 123.76C488.061 124.08 488.115 124.48 488.115 124.96C488.115 126.027 487.635 126.56 486.675 126.56C486.515 126.56 486.355 126.453 486.195 126.24C485.021 124.533 484.301 122.853 484.035 121.2C483.821 119.547 483.715 118.267 483.715 117.36C483.715 116.24 483.875 114.8 484.195 113.04C484.515 111.227 484.915 109.333 485.395 107.36C485.875 105.333 486.408 103.333 486.995 101.36C487.635 99.3333 488.248 97.5733 488.835 96.08C488.941 95.9733 489.075 95.8667 489.235 95.76C489.395 95.6533 489.608 95.6 489.875 95.6C490.248 95.6 490.541 95.76 490.755 96.08C490.968 96.3467 491.128 96.6933 491.235 97.12C491.341 97.4933 491.421 97.8933 491.475 98.32C491.528 98.7467 491.555 99.0933 491.555 99.36ZM494.195 135.28C494.195 135.867 494.008 136.48 493.635 137.12C493.315 137.707 492.888 138 492.355 138C491.661 138 490.995 137.653 490.355 136.96C489.768 136.267 489.475 135.467 489.475 134.56C489.475 134.24 489.528 133.84 489.635 133.36C489.795 132.827 490.141 132.56 490.675 132.56C490.888 132.56 491.181 132.587 491.555 132.64C491.928 132.693 492.301 132.827 492.675 133.04C493.101 133.2 493.448 133.467 493.715 133.84C494.035 134.213 494.195 134.693 494.195 135.28Z" fill="#F9B316"/>
</svg>
