<svg width="1119" height="185" viewBox="0 0 1119 185" fill="none" xmlns="http://www.w3.org/2000/svg">
<rect width="1119" height="185" fill="#FEEC9A"/>
<path d="M449.96 90.2C449.96 90.4667 449.827 90.68 449.56 90.84C449.347 91 449.08 91.1333 448.76 91.24C448.494 91.3467 448.2 91.48 447.88 91.64C447.56 91.7467 447.32 91.88 447.16 92.04L447.72 95.8C448.04 97.88 448.307 99.9067 448.52 101.88C448.787 103.853 448.92 105.72 448.92 107.48C448.92 108.867 448.76 110.12 448.44 111.24C448.174 112.307 447.667 112.84 446.92 112.84C446.547 112.84 446.2 112.387 445.88 111.48C445.614 110.52 445.374 109.453 445.16 108.28C445 107.053 444.867 105.853 444.76 104.68C444.707 103.453 444.68 102.573 444.68 102.04C444.68 101.667 444.654 101.08 444.6 100.28C444.547 99.4267 444.467 98.5467 444.36 97.64C444.254 96.68 444.147 95.8 444.04 95C443.934 94.1467 443.854 93.5067 443.8 93.08C442.894 93.1333 441.667 93.2667 440.12 93.48C438.574 93.64 436.68 94.0133 434.44 94.6V95.56C434.44 96.7333 434.494 98.04 434.6 99.48C434.707 100.867 434.814 102.307 434.92 103.8C435.08 105.24 435.214 106.707 435.32 108.2C435.427 109.64 435.48 111.027 435.48 112.36C435.48 112.893 435.427 113.32 435.32 113.64C435.214 114.013 434.974 114.2 434.6 114.2C433.96 114.2 433.454 113.88 433.08 113.24C432.76 112.6 432.52 111.853 432.36 111C432.2 110.093 432.067 109.16 431.96 108.2C431.907 107.24 431.854 106.44 431.8 105.8C431.587 104.413 431.4 102.813 431.24 101C431.134 99.1333 431.027 97.24 430.92 95.32C430.707 95.32 430.44 95.2667 430.12 95.16C429.8 95 429.48 94.84 429.16 94.68C428.84 94.4667 428.574 94.2533 428.36 94.04C428.147 93.8267 428.04 93.5867 428.04 93.32C428.04 92.68 428.334 92.1733 428.92 91.8C429.507 91.3733 430.147 91.0267 430.84 90.76C430.787 90.28 430.76 89.7733 430.76 89.24C430.76 88.6533 430.76 87.6667 430.76 86.28C430.76 85.6933 430.76 84.84 430.76 83.72C430.76 82.5467 430.76 81.24 430.76 79.8C430.76 78.3067 430.76 76.68 430.76 74.92C430.814 73.16 430.84 71.3733 430.84 69.56C430.894 69.1333 431.027 68.6267 431.24 68.04C431.454 67.4 431.8 67.08 432.28 67.08C432.654 67.08 432.974 67.24 433.24 67.56C433.507 67.8267 433.72 68.1733 433.88 68.6C434.04 69.0267 434.147 69.48 434.2 69.96C434.307 70.3867 434.36 70.76 434.36 71.08V90.2C434.84 90.2 435.48 90.1733 436.28 90.12C437.08 90.0667 437.907 90.0133 438.76 89.96C439.614 89.8533 440.44 89.7467 441.24 89.64C442.094 89.5333 442.787 89.4267 443.32 89.32L441.48 72.52C441.427 72.1467 441.374 71.7467 441.32 71.32C441.32 70.8933 441.32 70.5467 441.32 70.28C441.32 69.2133 441.454 68.36 441.72 67.72C442.04 67.0267 442.494 66.68 443.08 66.68C443.827 66.68 444.28 67.0267 444.44 67.72C444.6 68.4133 444.707 69.4267 444.76 70.76C444.814 71.6133 444.867 72.4667 444.92 73.32C444.974 74.12 445.054 74.92 445.16 75.72L447 89.24C447.64 89.24 448.28 89.2933 448.92 89.4C449.614 89.4533 449.96 89.72 449.96 90.2ZM479.407 104.6C479.461 104.707 479.487 104.867 479.487 105.08C479.487 105.4 479.247 105.88 478.767 106.52C478.607 106.733 478.261 107.08 477.727 107.56C477.194 108.04 476.474 108.52 475.567 109C474.661 109.48 473.541 109.907 472.207 110.28C470.927 110.653 469.407 110.84 467.647 110.84C466.421 110.84 465.221 110.573 464.047 110.04C462.874 109.453 461.834 108.627 460.927 107.56C460.021 106.44 459.274 105.08 458.687 103.48C458.101 101.827 457.807 99.9067 457.807 97.72C457.807 95.64 458.074 93.6933 458.607 91.88C459.141 90.0667 459.807 88.4667 460.607 87.08C461.461 85.6933 462.394 84.6 463.407 83.8C464.421 83 465.407 82.6 466.367 82.6C467.221 82.6 468.074 82.7867 468.927 83.16C469.834 83.48 470.634 83.9067 471.327 84.44C472.074 84.9733 472.661 85.5867 473.087 86.28C473.514 86.92 473.727 87.5867 473.727 88.28C473.727 89.08 473.354 89.9067 472.607 90.76C471.914 91.6133 471.061 92.4133 470.047 93.16C469.034 93.8533 468.021 94.44 467.007 94.92C465.994 95.3467 465.194 95.56 464.607 95.56C464.287 95.56 463.994 95.4267 463.727 95.16C463.514 94.84 463.407 94.4667 463.407 94.04C463.407 93.2933 463.727 92.7067 464.367 92.28C465.061 91.8533 465.807 91.48 466.607 91.16C467.407 90.7867 468.127 90.36 468.767 89.88C469.461 89.4 469.807 88.7333 469.807 87.88C469.807 87.7733 469.674 87.5067 469.407 87.08C469.141 86.6533 468.421 86.44 467.247 86.44C466.714 86.44 466.101 86.76 465.407 87.4C464.714 87.9867 464.047 88.8133 463.407 89.88C462.767 90.8933 462.234 92.12 461.807 93.56C461.381 94.9467 461.167 96.4667 461.167 98.12C461.167 99.5067 461.407 100.76 461.887 101.88C462.421 103 463.087 103.96 463.887 104.76C464.687 105.507 465.621 106.093 466.687 106.52C467.754 106.947 468.847 107.16 469.967 107.16C470.767 107.16 471.621 107 472.527 106.68C473.487 106.307 474.367 105.933 475.167 105.56C476.021 105.133 476.741 104.76 477.327 104.44C477.967 104.067 478.367 103.88 478.527 103.88C478.687 103.88 478.847 103.96 479.007 104.12C479.221 104.28 479.354 104.44 479.407 104.6ZM495.798 110.68C495.798 111.107 495.638 111.427 495.318 111.64C494.998 111.853 494.624 111.96 494.198 111.96C493.718 111.96 493.211 111.507 492.678 110.6C492.198 109.693 491.718 108.547 491.238 107.16C490.758 105.773 490.304 104.28 489.878 102.68C489.451 101.027 489.078 99.5067 488.758 98.12C488.438 96.68 488.171 95.48 487.958 94.52C487.798 93.56 487.718 93.0267 487.718 92.92C487.718 92.7067 487.611 92.1467 487.398 91.24C487.238 90.3333 486.998 88.92 486.678 87C486.411 85.08 486.091 82.6 485.718 79.56C485.398 76.4667 485.051 72.6533 484.678 68.12C484.678 67.64 484.758 67.0267 484.918 66.28C485.078 65.5333 485.451 65.16 486.038 65.16C486.784 65.16 487.344 65.6667 487.718 66.68C488.144 67.6933 488.464 68.9467 488.678 70.44C488.944 71.9333 489.131 73.5067 489.238 75.16C489.344 76.76 489.478 78.1733 489.638 79.4C489.851 81.1067 490.038 82.6533 490.198 84.04C490.411 85.4267 490.598 86.8133 490.758 88.2C490.971 89.5333 491.211 90.9467 491.478 92.44C491.798 93.9333 492.171 95.5867 492.598 97.4L495.798 110.68ZM512.773 110.68C512.773 111.107 512.613 111.427 512.293 111.64C511.973 111.853 511.599 111.96 511.173 111.96C510.693 111.96 510.186 111.507 509.653 110.6C509.173 109.693 508.693 108.547 508.213 107.16C507.733 105.773 507.279 104.28 506.853 102.68C506.426 101.027 506.053 99.5067 505.733 98.12C505.413 96.68 505.146 95.48 504.933 94.52C504.773 93.56 504.693 93.0267 504.693 92.92C504.693 92.7067 504.586 92.1467 504.373 91.24C504.213 90.3333 503.973 88.92 503.653 87C503.386 85.08 503.066 82.6 502.693 79.56C502.373 76.4667 502.026 72.6533 501.653 68.12C501.653 67.64 501.733 67.0267 501.893 66.28C502.053 65.5333 502.426 65.16 503.013 65.16C503.759 65.16 504.319 65.6667 504.693 66.68C505.119 67.6933 505.439 68.9467 505.653 70.44C505.919 71.9333 506.106 73.5067 506.213 75.16C506.319 76.76 506.453 78.1733 506.613 79.4C506.826 81.1067 507.013 82.6533 507.173 84.04C507.386 85.4267 507.573 86.8133 507.733 88.2C507.946 89.5333 508.186 90.9467 508.453 92.44C508.773 93.9333 509.146 95.5867 509.573 97.4L512.773 110.68ZM533.428 95.72C533.428 96.8933 533.268 98.0133 532.948 99.08C532.628 100.147 532.201 101.08 531.668 101.88C531.134 102.68 530.494 103.32 529.748 103.8C529.054 104.227 528.281 104.44 527.428 104.44C525.934 104.44 524.761 104.013 523.908 103.16C523.054 102.307 522.388 101.32 521.908 100.2C521.481 99.08 521.188 97.96 521.028 96.84C520.921 95.6667 520.868 94.7867 520.868 94.2C520.868 93.24 521.001 92.1733 521.268 91C521.588 89.7733 521.988 88.6533 522.468 87.64C523.001 86.6267 523.588 85.7733 524.228 85.08C524.868 84.3867 525.534 84.04 526.228 84.04C526.388 84.04 526.628 84.0933 526.948 84.2C527.321 84.3067 527.694 84.4667 528.068 84.68C528.441 84.8933 528.761 85.16 529.028 85.48C529.348 85.8 529.561 86.1733 529.668 86.6C530.254 86.6533 530.841 86.8667 531.428 87.24C532.014 87.6133 532.334 87.9067 532.388 88.12C532.814 89.5067 533.081 90.8933 533.188 92.28C533.348 93.6667 533.428 94.8133 533.428 95.72ZM529.828 94.28C529.828 93.48 529.748 92.6533 529.588 91.8C529.428 90.8933 529.108 89.9867 528.628 89.08C528.521 89.1333 528.388 89.16 528.228 89.16C528.014 89.16 527.828 89.1333 527.668 89.08C527.561 89.0267 527.454 89 527.348 89C526.708 89 526.201 89.1867 525.828 89.56C525.454 89.88 525.161 90.3333 524.948 90.92C524.788 91.4533 524.681 92.04 524.628 92.68C524.574 93.32 524.548 93.9333 524.548 94.52C524.548 95.1067 524.574 95.7733 524.628 96.52C524.681 97.2133 524.788 97.88 524.948 98.52C525.161 99.16 525.428 99.72 525.748 100.2C526.068 100.627 526.494 100.84 527.028 100.84C527.561 100.84 528.014 100.573 528.388 100.04C528.761 99.4533 529.054 98.7867 529.268 98.04C529.481 97.2933 529.614 96.5733 529.668 95.88C529.774 95.1333 529.828 94.6 529.828 94.28ZM599.015 77.8C599.228 77.8533 599.335 78.0133 599.335 78.28C599.335 78.6533 599.148 79.0533 598.775 79.48C598.401 79.8533 598.215 80.28 598.215 80.76C598.215 80.8667 598.188 81.2667 598.135 81.96C598.135 82.6533 598.135 83.4267 598.135 84.28C598.135 85.1333 598.108 85.9333 598.055 86.68C598.055 87.4267 598.055 87.8533 598.055 87.96V95.88C598.055 95.9333 598.028 96.3067 597.975 97C597.921 97.6933 597.815 98.52 597.655 99.48C597.548 100.44 597.415 101.453 597.255 102.52C597.148 103.533 597.015 104.413 596.855 105.16C596.801 105.373 596.641 105.533 596.375 105.64C596.161 105.747 595.895 105.853 595.575 105.96C595.308 106.013 595.041 106.067 594.775 106.12C594.508 106.12 594.348 106.12 594.295 106.12C593.708 106.12 593.068 105.773 592.375 105.08C591.735 104.387 591.121 103.613 590.535 102.76C589.948 101.907 589.441 101.107 589.015 100.36C588.588 99.6133 588.348 99.1867 588.295 99.08C588.081 99.8267 587.841 100.6 587.575 101.4C587.308 102.147 587.015 102.84 586.695 103.48C586.375 104.12 586.001 104.653 585.575 105.08C585.201 105.507 584.775 105.72 584.295 105.72C583.655 105.72 582.988 105.4 582.295 104.76C581.601 104.12 580.881 103.293 580.135 102.28C579.441 101.267 578.775 100.147 578.135 98.92C577.495 97.64 576.935 96.4133 576.455 95.24C575.975 94.0667 575.575 92.9733 575.255 91.96C574.988 90.9467 574.855 90.1467 574.855 89.56C574.855 89.3467 574.961 89.08 575.175 88.76C575.388 88.44 575.681 88.28 576.055 88.28C576.801 88.28 577.335 88.52 577.655 89C577.708 89.0533 577.868 89.5333 578.135 90.44C578.455 91.3467 578.881 92.4133 579.415 93.64C579.948 94.8667 580.561 96.1467 581.255 97.48C582.001 98.76 582.828 99.8533 583.735 100.76C584.108 100.067 584.401 99.2933 584.615 98.44C584.881 97.5867 585.095 96.76 585.255 95.96C585.415 95.16 585.521 94.44 585.575 93.8C585.628 93.1067 585.655 92.5467 585.655 92.12C585.548 91.6933 585.468 91.2667 585.415 90.84C585.361 90.4667 585.308 90.0933 585.255 89.72C585.255 89.3467 585.255 89.0267 585.255 88.76C585.255 87.4267 585.788 86.76 586.855 86.76C587.655 86.76 588.268 87.0267 588.695 87.56C589.121 88.04 589.441 88.6267 589.655 89.32C589.868 89.96 590.001 90.6 590.055 91.24C590.161 91.88 590.268 92.3333 590.375 92.6C590.801 93.8267 591.175 94.9733 591.495 96.04C591.868 97.1067 592.481 98.2 593.335 99.32C593.548 99.16 593.708 98.8933 593.815 98.52C593.975 98.0933 594.081 97.6667 594.135 97.24C594.188 96.8133 594.215 96.44 594.215 96.12C594.215 95.7467 594.215 95.48 594.215 95.32V79.4C594.215 79.08 594.348 78.7867 594.615 78.52C594.881 78.2533 595.201 78.0133 595.575 77.8C595.948 77.5867 596.295 77.4267 596.615 77.32C596.988 77.16 597.255 77.08 597.415 77.08C597.681 77.08 597.921 77.16 598.135 77.32C598.401 77.48 598.695 77.64 599.015 77.8ZM620.212 95.72C620.212 96.8933 620.052 98.0133 619.732 99.08C619.412 100.147 618.986 101.08 618.452 101.88C617.919 102.68 617.279 103.32 616.532 103.8C615.839 104.227 615.066 104.44 614.212 104.44C612.719 104.44 611.546 104.013 610.692 103.16C609.839 102.307 609.172 101.32 608.692 100.2C608.266 99.08 607.972 97.96 607.812 96.84C607.706 95.6667 607.652 94.7867 607.652 94.2C607.652 93.24 607.786 92.1733 608.052 91C608.372 89.7733 608.772 88.6533 609.252 87.64C609.786 86.6267 610.372 85.7733 611.012 85.08C611.652 84.3867 612.319 84.04 613.012 84.04C613.172 84.04 613.412 84.0933 613.732 84.2C614.106 84.3067 614.479 84.4667 614.852 84.68C615.226 84.8933 615.546 85.16 615.812 85.48C616.132 85.8 616.346 86.1733 616.452 86.6C617.039 86.6533 617.626 86.8667 618.212 87.24C618.799 87.6133 619.119 87.9067 619.172 88.12C619.599 89.5067 619.866 90.8933 619.972 92.28C620.132 93.6667 620.212 94.8133 620.212 95.72ZM616.612 94.28C616.612 93.48 616.532 92.6533 616.372 91.8C616.212 90.8933 615.892 89.9867 615.412 89.08C615.306 89.1333 615.172 89.16 615.012 89.16C614.799 89.16 614.612 89.1333 614.452 89.08C614.346 89.0267 614.239 89 614.132 89C613.492 89 612.986 89.1867 612.612 89.56C612.239 89.88 611.946 90.3333 611.732 90.92C611.572 91.4533 611.466 92.04 611.412 92.68C611.359 93.32 611.332 93.9333 611.332 94.52C611.332 95.1067 611.359 95.7733 611.412 96.52C611.466 97.2133 611.572 97.88 611.732 98.52C611.946 99.16 612.212 99.72 612.532 100.2C612.852 100.627 613.279 100.84 613.812 100.84C614.346 100.84 614.799 100.573 615.172 100.04C615.546 99.4533 615.839 98.7867 616.052 98.04C616.266 97.2933 616.399 96.5733 616.452 95.88C616.559 95.1333 616.612 94.6 616.612 94.28ZM647.294 88.6C647.294 88.9733 647.134 89.2933 646.814 89.56C646.494 89.7733 646.121 89.96 645.694 90.12C645.267 90.28 644.841 90.4133 644.414 90.52C643.987 90.5733 643.641 90.6 643.374 90.6C642.574 90.6 642.041 90.5467 641.774 90.44C641.507 90.3333 641.294 90.28 641.134 90.28C639.801 90.28 638.734 90.3867 637.934 90.6C637.134 90.8133 636.494 91.16 636.014 91.64C635.587 92.12 635.294 92.7333 635.134 93.48C635.027 94.1733 634.974 95.0267 634.974 96.04C634.974 97.7467 635.027 99.1067 635.134 100.12C635.294 101.133 635.427 101.96 635.534 102.6C635.694 103.24 635.827 103.747 635.934 104.12C636.094 104.44 636.174 104.76 636.174 105.08C636.174 105.507 635.934 105.96 635.454 106.44C635.027 106.92 634.627 107.16 634.254 107.16C633.614 107.16 633.027 106.6 632.494 105.48C632.014 104.307 631.587 102.947 631.214 101.4C630.894 99.8 630.627 98.2267 630.414 96.68C630.201 95.1333 630.094 93.96 630.094 93.16C630.094 92.2533 630.174 91.4 630.334 90.6C630.494 89.7467 630.707 89.0267 630.974 88.44C631.241 87.8 631.534 87.2933 631.854 86.92C632.174 86.5467 632.494 86.36 632.814 86.36C633.081 86.36 633.294 86.4667 633.454 86.68C633.614 86.84 633.747 87.0533 633.854 87.32C633.961 87.5333 634.067 87.7467 634.174 87.96C634.334 88.12 634.521 88.2 634.734 88.2C635.214 88.2 635.987 87.96 637.054 87.48C638.121 87 639.427 86.76 640.974 86.76C642.414 86.76 643.481 86.8133 644.174 86.92C644.921 86.9733 645.641 87.1333 646.334 87.4C646.494 87.4533 646.681 87.5867 646.894 87.8C647.161 87.96 647.294 88.2267 647.294 88.6ZM676.467 100.12C676.467 100.387 676.333 100.653 676.067 100.92C675.853 101.133 675.72 101.373 675.667 101.64C675.667 102.227 675.773 102.787 675.987 103.32C676.253 103.853 676.387 104.493 676.387 105.24C676.387 105.933 676.173 106.28 675.747 106.28C675.213 106.28 674.813 106.36 674.547 106.52C674.333 106.627 673.933 106.733 673.347 106.84C673.027 106.84 672.68 106.547 672.307 105.96C672.093 105.693 671.907 105.373 671.747 105C671.747 104.947 671.587 105.053 671.267 105.32C671 105.587 670.52 105.907 669.827 106.28C669.187 106.6 668.28 106.92 667.107 107.24C665.987 107.507 664.547 107.64 662.787 107.64C661.293 107.64 659.987 107.32 658.867 106.68C657.747 105.987 656.813 105.107 656.067 104.04C655.373 102.973 654.84 101.773 654.467 100.44C654.147 99.0533 653.987 97.6667 653.987 96.28C653.987 95 654.12 93.8 654.387 92.68C654.707 91.5067 655.133 90.4933 655.667 89.64C656.2 88.7333 656.867 88.0133 657.667 87.48C658.467 86.9467 659.4 86.68 660.467 86.68C661.48 86.68 662.493 87 663.507 87.64C664.52 88.28 665.427 88.9733 666.227 89.72C667.027 90.4667 667.667 91.16 668.147 91.8C668.68 92.3867 668.947 92.68 668.947 92.68C668.2 88.52 667.533 84.76 666.947 81.4C666.68 79.96 666.413 78.5467 666.147 77.16C665.933 75.72 665.72 74.44 665.507 73.32C665.293 72.2 665.107 71.2667 664.947 70.52C664.84 69.72 664.787 69.24 664.787 69.08C664.733 68.76 664.68 68.2 664.627 67.4C664.573 66.5467 664.52 65.6667 664.467 64.76C664.413 63.8533 664.36 63.0267 664.307 62.28C664.253 61.5333 664.2 61.0533 664.147 60.84C663.987 60.3067 663.773 59.64 663.507 58.84C663.293 58.04 663.187 57.5867 663.187 57.48C663.187 57.2133 663.32 56.8933 663.587 56.52C663.853 56.0933 664.2 55.88 664.627 55.88C664.947 55.88 665.24 55.9067 665.507 55.96C665.773 56.0133 666.013 56.1733 666.227 56.44C666.44 56.7067 666.627 57.1333 666.787 57.72C667 58.2533 667.187 59.0267 667.347 60.04C667.4 60.5733 667.56 61.5867 667.827 63.08C668.093 64.5733 668.36 66.2 668.627 67.96C668.893 69.72 669.16 71.4 669.427 73C669.693 74.6 669.88 75.7733 669.987 76.52C670.253 78.5467 670.6 80.76 671.027 83.16C671.507 85.5067 671.987 87.7733 672.467 89.96C672.947 92.1467 673.427 94.0933 673.907 95.8C674.387 97.4533 674.813 98.5733 675.187 99.16C675.293 99.3733 675.507 99.5333 675.827 99.64C676.147 99.6933 676.36 99.8533 676.467 100.12ZM670.547 101.72C670.493 101.56 670.147 100.893 669.507 99.72C668.92 98.4933 668.147 97.1867 667.187 95.8C666.28 94.36 665.24 93.08 664.067 91.96C662.947 90.84 661.853 90.28 660.787 90.28C659.88 90.28 659.133 90.9733 658.547 92.36C658.013 93.7467 657.747 95.3467 657.747 97.16C657.747 99.1867 658.333 100.813 659.507 102.04C660.733 103.267 662.093 103.88 663.587 103.88C664.867 103.88 666.2 103.667 667.587 103.24C668.973 102.813 669.96 102.307 670.547 101.72ZM691.555 74.36C691.555 74.84 691.315 75.88 690.835 77.48C690.355 79.08 689.821 80.8667 689.235 82.84C688.701 84.76 688.195 86.6533 687.715 88.52C687.288 90.3867 687.075 91.8533 687.075 92.92C687.075 94.04 687.128 94.9733 687.235 95.72C687.341 96.4133 687.448 97 687.555 97.48C687.715 97.96 687.848 98.3867 687.955 98.76C688.061 99.08 688.115 99.48 688.115 99.96C688.115 101.027 687.635 101.56 686.675 101.56C686.515 101.56 686.355 101.453 686.195 101.24C685.021 99.5333 684.301 97.8533 684.035 96.2C683.821 94.5467 683.715 93.2667 683.715 92.36C683.715 91.24 683.875 89.8 684.195 88.04C684.515 86.2267 684.915 84.3333 685.395 82.36C685.875 80.3333 686.408 78.3333 686.995 76.36C687.635 74.3333 688.248 72.5733 688.835 71.08C688.941 70.9733 689.075 70.8667 689.235 70.76C689.395 70.6533 689.608 70.6 689.875 70.6C690.248 70.6 690.541 70.76 690.755 71.08C690.968 71.3467 691.128 71.6933 691.235 72.12C691.341 72.4933 691.421 72.8933 691.475 73.32C691.528 73.7467 691.555 74.0933 691.555 74.36ZM694.195 110.28C694.195 110.867 694.008 111.48 693.635 112.12C693.315 112.707 692.888 113 692.355 113C691.661 113 690.995 112.653 690.355 111.96C689.768 111.267 689.475 110.467 689.475 109.56C689.475 109.24 689.528 108.84 689.635 108.36C689.795 107.827 690.141 107.56 690.675 107.56C690.888 107.56 691.181 107.587 691.555 107.64C691.928 107.693 692.301 107.827 692.675 108.04C693.101 108.2 693.448 108.467 693.715 108.84C694.035 109.213 694.195 109.693 694.195 110.28Z" fill="#F9B316"/>
</svg>
