<svg width="1119" height="185" viewBox="0 0 1119 185" fill="none" xmlns="http://www.w3.org/2000/svg">
<g clip-path="url(#clip0_29_54)">
<rect width="1119" height="185" fill="white"/>
<path d="M449.96 90.2C449.96 90.4667 449.827 90.68 449.56 90.84C449.347 91 449.08 91.1333 448.76 91.24C448.494 91.3467 448.2 91.48 447.88 91.64C447.56 91.7467 447.32 91.88 447.16 92.04L447.72 95.8C448.04 97.88 448.307 99.9067 448.52 101.88C448.787 103.853 448.92 105.72 448.92 107.48C448.92 108.867 448.76 110.12 448.44 111.24C448.174 112.307 447.667 112.84 446.92 112.84C446.547 112.84 446.2 112.387 445.88 111.48C445.614 110.52 445.374 109.453 445.16 108.28C445 107.053 444.867 105.853 444.76 104.68C444.707 103.453 444.68 102.573 444.68 102.04C444.68 101.667 444.654 101.08 444.6 100.28C444.547 99.4267 444.467 98.5467 444.36 97.64C444.254 96.68 444.147 95.8 444.04 95C443.934 94.1467 443.854 93.5067 443.8 93.08C442.894 93.1333 441.667 93.2667 440.12 93.48C438.574 93.64 436.68 94.0133 434.44 94.6V95.56C434.44 96.7333 434.494 98.04 434.6 99.48C434.707 100.867 434.814 102.307 434.92 103.8C435.08 105.24 435.214 106.707 435.32 108.2C435.427 109.64 435.48 111.027 435.48 112.36C435.48 112.893 435.427 113.32 435.32 113.64C435.214 114.013 434.974 114.2 434.6 114.2C433.96 114.2 433.454 113.88 433.08 113.24C432.76 112.6 432.52 111.853 432.36 111C432.2 110.093 432.067 109.16 431.96 108.2C431.907 107.24 431.854 106.44 431.8 105.8C431.587 104.413 431.4 102.813 431.24 101C431.134 99.1333 431.027 97.24 430.92 95.32C430.707 95.32 430.44 95.2667 430.12 95.16C429.8 95 429.48 94.84 429.16 94.68C428.84 94.4667 428.574 94.2533 428.36 94.04C428.147 93.8267 428.04 93.5867 428.04 93.32C428.04 92.68 428.334 92.1733 428.92 91.8C429.507 91.3733 430.147 91.0267 430.84 90.76C430.787 90.28 430.76 89.7733 430.76 89.24C430.76 88.6533 430.76 87.6667 430.76 86.28C430.76 85.6933 430.76 84.84 430.76 83.72C430.76 82.5467 430.76 81.24 430.76 79.8C430.76 78.3067 430.76 76.68 430.76 74.92C430.814 73.16 430.84 71.3733 430.84 69.56C430.894 69.1333 431.027 68.6267 431.24 68.04C431.454 67.4 431.8 67.08 432.28 67.08C432.654 67.08 432.974 67.24 433.24 67.56C433.507 67.8267 433.72 68.1733 433.88 68.6C434.04 69.0267 434.147 69.48 434.2 69.96C434.307 70.3867 434.36 70.76 434.36 71.08V90.2C434.84 90.2 435.48 90.1733 436.28 90.12C437.08 90.0667 437.907 90.0133 438.76 89.96C439.614 89.8533 440.44 89.7467 441.24 89.64C442.094 89.5333 442.787 89.4267 443.32 89.32L441.48 72.52C441.427 72.1467 441.374 71.7467 441.32 71.32C441.32 70.8933 441.32 70.5467 441.32 70.28C441.32 69.2133 441.454 68.36 441.72 67.72C442.04 67.0267 442.494 66.68 443.08 66.68C443.827 66.68 444.28 67.0267 444.44 67.72C444.6 68.4133 444.707 69.4267 444.76 70.76C444.814 71.6133 444.867 72.4667 444.92 73.32C444.974 74.12 445.054 74.92 445.16 75.72L447 89.24C447.64 89.24 448.28 89.2933 448.92 89.4C449.614 89.4533 449.96 89.72 449.96 90.2ZM479.407 104.6C479.461 104.707 479.487 104.867 479.487 105.08C479.487 105.4 479.247 105.88 478.767 106.52C478.607 106.733 478.261 107.08 477.727 107.56C477.194 108.04 476.474 108.52 475.567 109C474.661 109.48 473.541 109.907 472.207 110.28C470.927 110.653 469.407 110.84 467.647 110.84C466.421 110.84 465.221 110.573 464.047 110.04C462.874 109.453 461.834 108.627 460.927 107.56C460.021 106.44 459.274 105.08 458.687 103.48C458.101 101.827 457.807 99.9067 457.807 97.72C457.807 95.64 458.074 93.6933 458.607 91.88C459.141 90.0667 459.807 88.4667 460.607 87.08C461.461 85.6933 462.394 84.6 463.407 83.8C464.421 83 465.407 82.6 466.367 82.6C467.221 82.6 468.074 82.7867 468.927 83.16C469.834 83.48 470.634 83.9067 471.327 84.44C472.074 84.9733 472.661 85.5867 473.087 86.28C473.514 86.92 473.727 87.5867 473.727 88.28C473.727 89.08 473.354 89.9067 472.607 90.76C471.914 91.6133 471.061 92.4133 470.047 93.16C469.034 93.8533 468.021 94.44 467.007 94.92C465.994 95.3467 465.194 95.56 464.607 95.56C464.287 95.56 463.994 95.4267 463.727 95.16C463.514 94.84 463.407 94.4667 463.407 94.04C463.407 93.2933 463.727 92.7067 464.367 92.28C465.061 91.8533 465.807 91.48 466.607 91.16C467.407 90.7867 468.127 90.36 468.767 89.88C469.461 89.4 469.807 88.7333 469.807 87.88C469.807 87.7733 469.674 87.5067 469.407 87.08C469.141 86.6533 468.421 86.44 467.247 86.44C466.714 86.44 466.101 86.76 465.407 87.4C464.714 87.9867 464.047 88.8133 463.407 89.88C462.767 90.8933 462.234 92.12 461.807 93.56C461.381 94.9467 461.167 96.4667 461.167 98.12C461.167 99.5067 461.407 100.76 461.887 101.88C462.421 103 463.087 103.96 463.887 104.76C464.687 105.507 465.621 106.093 466.687 106.52C467.754 106.947 468.847 107.16 469.967 107.16C470.767 107.16 471.621 107 472.527 106.68C473.487 106.307 474.367 105.933 475.167 105.56C476.021 105.133 476.741 104.76 477.327 104.44C477.967 104.067 478.367 103.88 478.527 103.88C478.687 103.88 478.847 103.96 479.007 104.12C479.221 104.28 479.354 104.44 479.407 104.6ZM495.798 110.68C495.798 111.107 495.638 111.427 495.318 111.64C494.998 111.853 494.624 111.96 494.198 111.96C493.718 111.96 493.211 111.507 492.678 110.6C492.198 109.693 491.718 108.547 491.238 107.16C490.758 105.773 490.304 104.28 489.878 102.68C489.451 101.027 489.078 99.5067 488.758 98.12C488.438 96.68 488.171 95.48 487.958 94.52C487.798 93.56 487.718 93.0267 487.718 92.92C487.718 92.7067 487.611 92.1467 487.398 91.24C487.238 90.3333 486.998 88.92 486.678 87C486.411 85.08 486.091 82.6 485.718 79.56C485.398 76.4667 485.051 72.6533 484.678 68.12C484.678 67.64 484.758 67.0267 484.918 66.28C485.078 65.5333 485.451 65.16 486.038 65.16C486.784 65.16 487.344 65.6667 487.718 66.68C488.144 67.6933 488.464 68.9467 488.678 70.44C488.944 71.9333 489.131 73.5067 489.238 75.16C489.344 76.76 489.478 78.1733 489.638 79.4C489.851 81.1067 490.038 82.6533 490.198 84.04C490.411 85.4267 490.598 86.8133 490.758 88.2C490.971 89.5333 491.211 90.9467 491.478 92.44C491.798 93.9333 492.171 95.5867 492.598 97.4L495.798 110.68ZM512.773 110.68C512.773 111.107 512.613 111.427 512.293 111.64C511.973 111.853 511.599 111.96 511.173 111.96C510.693 111.96 510.186 111.507 509.653 110.6C509.173 109.693 508.693 108.547 508.213 107.16C507.733 105.773 507.279 104.28 506.853 102.68C506.426 101.027 506.053 99.5067 505.733 98.12C505.413 96.68 505.146 95.48 504.933 94.52C504.773 93.56 504.693 93.0267 504.693 92.92C504.693 92.7067 504.586 92.1467 504.373 91.24C504.213 90.3333 503.973 88.92 503.653 87C503.386 85.08 503.066 82.6 502.693 79.56C502.373 76.4667 502.026 72.6533 501.653 68.12C501.653 67.64 501.733 67.0267 501.893 66.28C502.053 65.5333 502.426 65.16 503.013 65.16C503.759 65.16 504.319 65.6667 504.693 66.68C505.119 67.6933 505.439 68.9467 505.653 70.44C505.919 71.9333 506.106 73.5067 506.213 75.16C506.319 76.76 506.453 78.1733 506.613 79.4C506.826 81.1067 507.013 82.6533 507.173 84.04C507.386 85.4267 507.573 86.8133 507.733 88.2C507.946 89.5333 508.186 90.9467 508.453 92.44C508.773 93.9333 509.146 95.5867 509.573 97.4L512.773 110.68ZM533.428 95.72C533.428 96.8933 533.268 98.0133 532.948 99.08C532.628 100.147 532.201 101.08 531.668 101.88C531.134 102.68 530.494 103.32 529.748 103.8C529.054 104.227 528.281 104.44 527.428 104.44C525.934 104.44 524.761 104.013 523.908 103.16C523.054 102.307 522.388 101.32 521.908 100.2C521.481 99.08 521.188 97.96 521.028 96.84C520.921 95.6667 520.868 94.7867 520.868 94.2C520.868 93.24 521.001 92.1733 521.268 91C521.588 89.7733 521.988 88.6533 522.468 87.64C523.001 86.6267 523.588 85.7733 524.228 85.08C524.868 84.3867 525.534 84.04 526.228 84.04C526.388 84.04 526.628 84.0933 526.948 84.2C527.321 84.3067 527.694 84.4667 528.068 84.68C528.441 84.8933 528.761 85.16 529.028 85.48C529.348 85.8 529.561 86.1733 529.668 86.6C530.254 86.6533 530.841 86.8667 531.428 87.24C532.014 87.6133 532.334 87.9067 532.388 88.12C532.814 89.5067 533.081 90.8933 533.188 92.28C533.348 93.6667 533.428 94.8133 533.428 95.72ZM529.828 94.28C529.828 93.48 529.748 92.6533 529.588 91.8C529.428 90.8933 529.108 89.9867 528.628 89.08C528.521 89.1333 528.388 89.16 528.228 89.16C528.014 89.16 527.828 89.1333 527.668 89.08C527.561 89.0267 527.454 89 527.348 89C526.708 89 526.201 89.1867 525.828 89.56C525.454 89.88 525.161 90.3333 524.948 90.92C524.788 91.4533 524.681 92.04 524.628 92.68C524.574 93.32 524.548 93.9333 524.548 94.52C524.548 95.1067 524.574 95.7733 524.628 96.52C524.681 97.2133 524.788 97.88 524.948 98.52C525.161 99.16 525.428 99.72 525.748 100.2C526.068 100.627 526.494 100.84 527.028 100.84C527.561 100.84 528.014 100.573 528.388 100.04C528.761 99.4533 529.054 98.7867 529.268 98.04C529.481 97.2933 529.614 96.5733 529.668 95.88C529.774 95.1333 529.828 94.6 529.828 94.28ZM599.015 77.8C599.228 77.8533 599.335 78.0133 599.335 78.28C599.335 78.6533 599.148 79.0533 598.775 79.48C598.401 79.8533 598.215 80.28 598.215 80.76C598.215 80.8667 598.188 81.2667 598.135 81.96C598.135 82.6533 598.135 83.4267 598.135 84.28C598.135 85.1333 598.108 85.9333 598.055 86.68C598.055 87.4267 598.055 87.8533 598.055 87.96V95.88C598.055 95.9333 598.028 96.3067 597.975 97C597.921 97.6933 597.815 98.52 597.655 99.48C597.548 100.44 597.415 101.453 597.255 102.52C597.148 103.533 597.015 104.413 596.855 105.16C596.801 105.373 596.641 105.533 596.375 105.64C596.161 105.747 595.895 105.853 595.575 105.96C595.308 106.013 595.041 106.067 594.775 106.12C594.508 106.12 594.348 106.12 594.295 106.12C593.708 106.12 593.068 105.773 592.375 105.08C591.735 104.387 591.121 103.613 590.535 102.76C589.948 101.907 589.441 101.107 589.015 100.36C588.588 99.6133 588.348 99.1867 588.295 99.08C588.081 99.8267 587.841 100.6 587.575 101.4C587.308 102.147 587.015 102.84 586.695 103.48C586.375 104.12 586.001 104.653 585.575 105.08C585.201 105.507 584.775 105.72 584.295 105.72C583.655 105.72 582.988 105.4 582.295 104.76C581.601 104.12 580.881 103.293 580.135 102.28C579.441 101.267 578.775 100.147 578.135 98.92C577.495 97.64 576.935 96.4133 576.455 95.24C575.975 94.0667 575.575 92.9733 575.255 91.96C574.988 90.9467 574.855 90.1467 574.855 89.56C574.855 89.3467 574.961 89.08 575.175 88.76C575.388 88.44 575.681 88.28 576.055 88.28C576.801 88.28 577.335 88.52 577.655 89C577.708 89.0533 577.868 89.5333 578.135 90.44C578.455 91.3467 578.881 92.4133 579.415 93.64C579.948 94.8667 580.561 96.1467 581.255 97.48C582.001 98.76 582.828 99.8533 583.735 100.76C584.108 100.067 584.401 99.2933 584.615 98.44C584.881 97.5867 585.095 96.76 585.255 95.96C585.415 95.16 585.521 94.44 585.575 93.8C585.628 93.1067 585.655 92.5467 585.655 92.12C585.548 91.6933 585.468 91.2667 585.415 90.84C585.361 90.4667 585.308 90.0933 585.255 89.72C585.255 89.3467 585.255 89.0267 585.255 88.76C585.255 87.4267 585.788 86.76 586.855 86.76C587.655 86.76 588.268 87.0267 588.695 87.56C589.121 88.04 589.441 88.6267 589.655 89.32C589.868 89.96 590.001 90.6 590.055 91.24C590.161 91.88 590.268 92.3333 590.375 92.6C590.801 93.8267 591.175 94.9733 591.495 96.04C591.868 97.1067 592.481 98.2 593.335 99.32C593.548 99.16 593.708 98.8933 593.815 98.52C593.975 98.0933 594.081 97.6667 594.135 97.24C594.188 96.8133 594.215 96.44 594.215 96.12C594.215 95.7467 594.215 95.48 594.215 95.32V79.4C594.215 79.08 594.348 78.7867 594.615 78.52C594.881 78.2533 595.201 78.0133 595.575 77.8C595.948 77.5867 596.295 77.4267 596.615 77.32C596.988 77.16 597.255 77.08 597.415 77.08C597.681 77.08 597.921 77.16 598.135 77.32C598.401 77.48 598.695 77.64 599.015 77.8ZM620.212 95.72C620.212 96.8933 620.052 98.0133 619.732 99.08C619.412 100.147 618.986 101.08 618.452 101.88C617.919 102.68 617.279 103.32 616.532 103.8C615.839 104.227 615.066 104.44 614.212 104.44C612.719 104.44 611.546 104.013 610.692 103.16C609.839 102.307 609.172 101.32 608.692 100.2C608.266 99.08 607.972 97.96 607.812 96.84C607.706 95.6667 607.652 94.7867 607.652 94.2C607.652 93.24 607.786 92.1733 608.052 91C608.372 89.7733 608.772 88.6533 609.252 87.64C609.786 86.6267 610.372 85.7733 611.012 85.08C611.652 84.3867 612.319 84.04 613.012 84.04C613.172 84.04 613.412 84.0933 613.732 84.2C614.106 84.3067 614.479 84.4667 614.852 84.68C615.226 84.8933 615.546 85.16 615.812 85.48C616.132 85.8 616.346 86.1733 616.452 86.6C617.039 86.6533 617.626 86.8667 618.212 87.24C618.799 87.6133 619.119 87.9067 619.172 88.12C619.599 89.5067 619.866 90.8933 619.972 92.28C620.132 93.6667 620.212 94.8133 620.212 95.72ZM616.612 94.28C616.612 93.48 616.532 92.6533 616.372 91.8C616.212 90.8933 615.892 89.9867 615.412 89.08C615.306 89.1333 615.172 89.16 615.012 89.16C614.799 89.16 614.612 89.1333 614.452 89.08C614.346 89.0267 614.239 89 614.132 89C613.492 89 612.986 89.1867 612.612 89.56C612.239 89.88 611.946 90.3333 611.732 90.92C611.572 91.4533 611.466 92.04 611.412 92.68C611.359 93.32 611.332 93.9333 611.332 94.52C611.332 95.1067 611.359 95.7733 611.412 96.52C611.466 97.2133 611.572 97.88 611.732 98.52C611.946 99.16 612.212 99.72 612.532 100.2C612.852 100.627 613.279 100.84 613.812 100.84C614.346 100.84 614.799 100.573 615.172 100.04C615.546 99.4533 615.839 98.7867 616.052 98.04C616.266 97.2933 616.399 96.5733 616.452 95.88C616.559 95.1333 616.612 94.6 616.612 94.28ZM647.294 88.6C647.294 88.9733 647.134 89.2933 646.814 89.56C646.494 89.7733 646.121 89.96 645.694 90.12C645.267 90.28 644.841 90.4133 644.414 90.52C643.987 90.5733 643.641 90.6 643.374 90.6C642.574 90.6 642.041 90.5467 641.774 90.44C641.507 90.3333 641.294 90.28 641.134 90.28C639.801 90.28 638.734 90.3867 637.934 90.6C637.134 90.8133 636.494 91.16 636.014 91.64C635.587 92.12 635.294 92.7333 635.134 93.48C635.027 94.1733 634.974 95.0267 634.974 96.04C634.974 97.7467 635.027 99.1067 635.134 100.12C635.294 101.133 635.427 101.96 635.534 102.6C635.694 103.24 635.827 103.747 635.934 104.12C636.094 104.44 636.174 104.76 636.174 105.08C636.174 105.507 635.934 105.96 635.454 106.44C635.027 106.92 634.627 107.16 634.254 107.16C633.614 107.16 633.027 106.6 632.494 105.48C632.014 104.307 631.587 102.947 631.214 101.4C630.894 99.8 630.627 98.2267 630.414 96.68C630.201 95.1333 630.094 93.96 630.094 93.16C630.094 92.2533 630.174 91.4 630.334 90.6C630.494 89.7467 630.707 89.0267 630.974 88.44C631.241 87.8 631.534 87.2933 631.854 86.92C632.174 86.5467 632.494 86.36 632.814 86.36C633.081 86.36 633.294 86.4667 633.454 86.68C633.614 86.84 633.747 87.0533 633.854 87.32C633.961 87.5333 634.067 87.7467 634.174 87.96C634.334 88.12 634.521 88.2 634.734 88.2C635.214 88.2 635.987 87.96 637.054 87.48C638.121 87 639.427 86.76 640.974 86.76C642.414 86.76 643.481 86.8133 644.174 86.92C644.921 86.9733 645.641 87.1333 646.334 87.4C646.494 87.4533 646.681 87.5867 646.894 87.8C647.161 87.96 647.294 88.2267 647.294 88.6ZM676.467 100.12C676.467 100.387 676.333 100.653 676.067 100.92C675.853 101.133 675.72 101.373 675.667 101.64C675.667 102.227 675.773 102.787 675.987 103.32C676.253 103.853 676.387 104.493 676.387 105.24C676.387 105.933 676.173 106.28 675.747 106.28C675.213 106.28 674.813 106.36 674.547 106.52C674.333 106.627 673.933 106.733 673.347 106.84C673.027 106.84 672.68 106.547 672.307 105.96C672.093 105.693 671.907 105.373 671.747 105C671.747 104.947 671.587 105.053 671.267 105.32C671 105.587 670.52 105.907 669.827 106.28C669.187 106.6 668.28 106.92 667.107 107.24C665.987 107.507 664.547 107.64 662.787 107.64C661.293 107.64 659.987 107.32 658.867 106.68C657.747 105.987 656.813 105.107 656.067 104.04C655.373 102.973 654.84 101.773 654.467 100.44C654.147 99.0533 653.987 97.6667 653.987 96.28C653.987 95 654.12 93.8 654.387 92.68C654.707 91.5067 655.133 90.4933 655.667 89.64C656.2 88.7333 656.867 88.0133 657.667 87.48C658.467 86.9467 659.4 86.68 660.467 86.68C661.48 86.68 662.493 87 663.507 87.64C664.52 88.28 665.427 88.9733 666.227 89.72C667.027 90.4667 667.667 91.16 668.147 91.8C668.68 92.3867 668.947 92.68 668.947 92.68C668.2 88.52 667.533 84.76 666.947 81.4C666.68 79.96 666.413 78.5467 666.147 77.16C665.933 75.72 665.72 74.44 665.507 73.32C665.293 72.2 665.107 71.2667 664.947 70.52C664.84 69.72 664.787 69.24 664.787 69.08C664.733 68.76 664.68 68.2 664.627 67.4C664.573 66.5467 664.52 65.6667 664.467 64.76C664.413 63.8533 664.36 63.0267 664.307 62.28C664.253 61.5333 664.2 61.0533 664.147 60.84C663.987 60.3067 663.773 59.64 663.507 58.84C663.293 58.04 663.187 57.5867 663.187 57.48C663.187 57.2133 663.32 56.8933 663.587 56.52C663.853 56.0933 664.2 55.88 664.627 55.88C664.947 55.88 665.24 55.9067 665.507 55.96C665.773 56.0133 666.013 56.1733 666.227 56.44C666.44 56.7067 666.627 57.1333 666.787 57.72C667 58.2533 667.187 59.0267 667.347 60.04C667.4 60.5733 667.56 61.5867 667.827 63.08C668.093 64.5733 668.36 66.2 668.627 67.96C668.893 69.72 669.16 71.4 669.427 73C669.693 74.6 669.88 75.7733 669.987 76.52C670.253 78.5467 670.6 80.76 671.027 83.16C671.507 85.5067 671.987 87.7733 672.467 89.96C672.947 92.1467 673.427 94.0933 673.907 95.8C674.387 97.4533 674.813 98.5733 675.187 99.16C675.293 99.3733 675.507 99.5333 675.827 99.64C676.147 99.6933 676.36 99.8533 676.467 100.12ZM670.547 101.72C670.493 101.56 670.147 100.893 669.507 99.72C668.92 98.4933 668.147 97.1867 667.187 95.8C666.28 94.36 665.24 93.08 664.067 91.96C662.947 90.84 661.853 90.28 660.787 90.28C659.88 90.28 659.133 90.9733 658.547 92.36C658.013 93.7467 657.747 95.3467 657.747 97.16C657.747 99.1867 658.333 100.813 659.507 102.04C660.733 103.267 662.093 103.88 663.587 103.88C664.867 103.88 666.2 103.667 667.587 103.24C668.973 102.813 669.96 102.307 670.547 101.72ZM691.555 74.36C691.555 74.84 691.315 75.88 690.835 77.48C690.355 79.08 689.821 80.8667 689.235 82.84C688.701 84.76 688.195 86.6533 687.715 88.52C687.288 90.3867 687.075 91.8533 687.075 92.92C687.075 94.04 687.128 94.9733 687.235 95.72C687.341 96.4133 687.448 97 687.555 97.48C687.715 97.96 687.848 98.3867 687.955 98.76C688.061 99.08 688.115 99.48 688.115 99.96C688.115 101.027 687.635 101.56 686.675 101.56C686.515 101.56 686.355 101.453 686.195 101.24C685.021 99.5333 684.301 97.8533 684.035 96.2C683.821 94.5467 683.715 93.2667 683.715 92.36C683.715 91.24 683.875 89.8 684.195 88.04C684.515 86.2267 684.915 84.3333 685.395 82.36C685.875 80.3333 686.408 78.3333 686.995 76.36C687.635 74.3333 688.248 72.5733 688.835 71.08C688.941 70.9733 689.075 70.8667 689.235 70.76C689.395 70.6533 689.608 70.6 689.875 70.6C690.248 70.6 690.541 70.76 690.755 71.08C690.968 71.3467 691.128 71.6933 691.235 72.12C691.341 72.4933 691.421 72.8933 691.475 73.32C691.528 73.7467 691.555 74.0933 691.555 74.36ZM694.195 110.28C694.195 110.867 694.008 111.48 693.635 112.12C693.315 112.707 692.888 113 692.355 113C691.661 113 690.995 112.653 690.355 111.96C689.768 111.267 689.475 110.467 689.475 109.56C689.475 109.24 689.528 108.84 689.635 108.36C689.795 107.827 690.141 107.56 690.675 107.56C690.888 107.56 691.181 107.587 691.555 107.64C691.928 107.693 692.301 107.827 692.675 108.04C693.101 108.2 693.448 108.467 693.715 108.84C694.035 109.213 694.195 109.693 694.195 110.28Z" fill="#F9B316"/>
<path d="M29 29L29.6342 66.4164L40.4397 30.3195L30.8627 66.7044L51.1607 34.1951L31.9742 67.2623L60.4892 40.3833L32.8988 68.0551L67.8391 48.4953L33.5784 69.0329L72.7486 58.0213L33.9704 70.1343L74.9092 68.3628L34.05 71.2901L74.1852 78.87L33.8123 72.4277L70.622 88.8827L33.2723 73.4755L64.4436 97.7718L32.4638 74.3678L56.0381 104.979L31.4377 75.0485L45.9337 110.051L30.2584 75.4749L34.7653 112.669L29 75.62L23.2347 112.669L27.7416 75.4749L12.0663 110.051L26.5623 75.0485L1.96188 104.979L25.5362 74.3678L-6.44361 97.7718L24.7277 73.4755L-12.622 88.8827L24.1877 72.4277L-16.1852 78.87L23.95 71.2901L-16.9092 68.3628L24.0296 70.1343L-14.7486 58.0213L24.4216 69.0329L-9.83908 48.4953L25.1012 68.0551L-2.48917 40.3833L26.0258 67.2623L6.83933 34.1951L27.1373 66.7044L17.5603 30.3195L28.3658 66.4164L29 29Z" fill="#F9B316"/>
<path d="M334 80L334.634 117.416L345.44 81.3195L335.863 117.704L356.161 85.1951L336.974 118.262L365.489 91.3833L337.899 119.055L372.839 99.4953L338.578 120.033L377.749 109.021L338.97 121.134L379.909 119.363L339.05 122.29L379.185 129.87L338.812 123.428L375.622 139.883L338.272 124.476L369.444 148.772L337.464 125.368L361.038 155.979L336.438 126.049L350.934 161.051L335.258 126.475L339.765 163.669L334 126.62L328.235 163.669L332.742 126.475L317.066 161.051L331.562 126.049L306.962 155.979L330.536 125.368L298.556 148.772L329.728 124.476L292.378 139.883L329.188 123.428L288.815 129.87L328.95 122.29L288.091 119.363L329.03 121.134L290.251 109.021L329.422 120.033L295.161 99.4953L330.101 119.055L302.511 91.3833L331.026 118.262L311.839 85.1951L332.137 117.704L322.56 81.3195L333.366 117.416L334 80Z" fill="#F9B316"/>
<path d="M846 -20L846.634 17.4164L857.44 -18.6805L847.863 17.7044L868.161 -14.8049L848.974 18.2623L877.489 -8.61668L849.899 19.0551L884.839 -0.504725L850.578 20.0329L889.749 9.02129L850.97 21.1343L891.909 19.3628L851.05 22.2901L891.185 29.87L850.812 23.4277L887.622 39.8827L850.272 24.4755L881.444 48.7718L849.464 25.3678L873.038 55.9787L848.438 26.0485L862.934 61.0506L847.258 26.4749L851.765 63.6688L846 26.62L840.235 63.6688L844.742 26.4749L829.066 61.0506L843.562 26.0485L818.962 55.9787L842.536 25.3678L810.556 48.7718L841.728 24.4755L804.378 39.8827L841.188 23.4277L800.815 29.87L840.95 22.2901L800.091 19.3628L841.03 21.1343L802.251 9.02129L841.422 20.0329L807.161 -0.504725L842.101 19.0551L814.511 -8.61668L843.026 18.2623L823.839 -14.8049L844.137 17.7044L834.56 -18.6805L845.366 17.4164L846 -20Z" fill="#F9B316"/>
<path d="M1089 17L1089.63 54.4164L1100.44 18.3195L1090.86 54.7044L1111.16 22.1951L1091.97 55.2623L1120.49 28.3833L1092.9 56.0551L1127.84 36.4953L1093.58 57.0329L1132.75 46.0213L1093.97 58.1343L1134.91 56.3628L1094.05 59.2901L1134.19 66.87L1093.81 60.4277L1130.62 76.8827L1093.27 61.4755L1124.44 85.7718L1092.46 62.3678L1116.04 92.9787L1091.44 63.0485L1105.93 98.0506L1090.26 63.4749L1094.77 100.669L1089 63.62L1083.23 100.669L1087.74 63.4749L1072.07 98.0506L1086.56 63.0485L1061.96 92.9787L1085.54 62.3678L1053.56 85.7718L1084.73 61.4755L1047.38 76.8827L1084.19 60.4277L1043.81 66.87L1083.95 59.2901L1043.09 56.3628L1084.03 58.1343L1045.25 46.0213L1084.42 57.0329L1050.16 36.4953L1085.1 56.0551L1057.51 28.3833L1086.03 55.2623L1066.84 22.1951L1087.14 54.7044L1077.56 18.3195L1088.37 54.4164L1089 17Z" fill="#F9B316"/>
<path d="M196 122L196.634 159.416L207.44 123.32L197.863 159.704L218.161 127.195L198.974 160.262L227.489 133.383L199.899 161.055L234.839 141.495L200.578 162.033L239.749 151.021L200.97 163.134L241.909 161.363L201.05 164.29L241.185 171.87L200.812 165.428L237.622 181.883L200.272 166.476L231.444 190.772L199.464 167.368L223.038 197.979L198.438 168.049L212.934 203.051L197.258 168.475L201.765 205.669L196 168.62L190.235 205.669L194.742 168.475L179.066 203.051L193.562 168.049L168.962 197.979L192.536 167.368L160.556 190.772L191.728 166.476L154.378 181.883L191.188 165.428L150.815 171.87L190.95 164.29L150.091 161.363L191.03 163.134L152.251 151.021L191.422 162.033L157.161 141.495L192.101 161.055L164.511 133.383L193.026 160.262L173.839 127.195L194.137 159.704L184.56 123.32L195.366 159.416L196 122Z" fill="#F9B316"/>
<path d="M235 -32L235.634 5.41643L246.44 -30.6805L236.863 5.70443L257.161 -26.8049L237.974 6.26234L266.489 -20.6167L238.899 7.0551L273.839 -12.5047L239.578 8.0329L278.749 -2.97871L239.97 9.1343L280.909 7.3628L240.05 10.2901L280.185 17.87L239.812 11.4277L276.622 27.8827L239.272 12.4755L270.444 36.7718L238.464 13.3678L262.038 43.9787L237.438 14.0485L251.934 49.0506L236.258 14.4749L240.765 51.6688L235 14.62L229.235 51.6688L233.742 14.4749L218.066 49.0506L232.562 14.0485L207.962 43.9787L231.536 13.3678L199.556 36.7718L230.728 12.4755L193.378 27.8827L230.188 11.4277L189.815 17.87L229.95 10.2901L189.091 7.3628L230.03 9.1343L191.251 -2.97871L230.422 8.0329L196.161 -12.5047L231.101 7.0551L203.511 -20.6167L232.026 6.26234L212.839 -26.8049L233.137 5.70443L223.56 -30.6805L234.366 5.41643L235 -32Z" fill="#F9B316"/>
<path d="M387 22L387.634 59.4164L398.44 23.3195L388.863 59.7044L409.161 27.1951L389.974 60.2623L418.489 33.3833L390.899 61.0551L425.839 41.4953L391.578 62.0329L430.749 51.0213L391.97 63.1343L432.909 61.3628L392.05 64.2901L432.185 71.87L391.812 65.4277L428.622 81.8827L391.272 66.4755L422.444 90.7718L390.464 67.3678L414.038 97.9787L389.438 68.0485L403.934 103.051L388.258 68.4749L392.765 105.669L387 68.62L381.235 105.669L385.742 68.4749L370.066 103.051L384.562 68.0485L359.962 97.9787L383.536 67.3678L351.556 90.7718L382.728 66.4755L345.378 81.8827L382.188 65.4277L341.815 71.87L381.95 64.2901L341.091 61.3628L382.03 63.1343L343.251 51.0213L382.422 62.0329L348.161 41.4953L383.101 61.0551L355.511 33.3833L384.026 60.2623L364.839 27.1951L385.137 59.7044L375.56 23.3195L386.366 59.4164L387 22Z" fill="#F9B316"/>
<path d="M82 -32L82.6342 5.41643L93.4397 -30.6805L83.8627 5.70443L104.161 -26.8049L84.9742 6.26234L113.489 -20.6167L85.8988 7.0551L120.839 -12.5047L86.5784 8.0329L125.749 -2.97871L86.9704 9.1343L127.909 7.3628L87.05 10.2901L127.185 17.87L86.8123 11.4277L123.622 27.8827L86.2723 12.4755L117.444 36.7718L85.4638 13.3678L109.038 43.9787L84.4377 14.0485L98.9337 49.0506L83.2584 14.4749L87.7653 51.6688L82 14.62L76.2347 51.6688L80.7416 14.4749L65.0663 49.0506L79.5623 14.0485L54.9619 43.9787L78.5362 13.3678L46.5564 36.7718L77.7277 12.4755L40.378 27.8827L77.1877 11.4277L36.8148 17.87L76.95 10.2901L36.0908 7.3628L77.0296 9.1343L38.2514 -2.97871L77.4216 8.0329L43.1609 -12.5047L78.1012 7.0551L50.5108 -20.6167L79.0258 6.26234L59.8393 -26.8049L80.1373 5.70443L70.5603 -30.6805L81.3658 5.41643L82 -32Z" fill="#F9B316"/>
<path d="M442 143L442.634 180.416L453.44 144.32L443.863 180.704L464.161 148.195L444.974 181.262L473.489 154.383L445.899 182.055L480.839 162.495L446.578 183.033L485.749 172.021L446.97 184.134L487.909 182.363L447.05 185.29L487.185 192.87L446.812 186.428L483.622 202.883L446.272 187.476L477.444 211.772L445.464 188.368L469.038 218.979L444.438 189.049L458.934 224.051L443.258 189.475L447.765 226.669L442 189.62L436.235 226.669L440.742 189.475L425.066 224.051L439.562 189.049L414.962 218.979L438.536 188.368L406.556 211.772L437.728 187.476L400.378 202.883L437.188 186.428L396.815 192.87L436.95 185.29L396.091 182.363L437.03 184.134L398.251 172.021L437.422 183.033L403.161 162.495L438.101 182.055L410.511 154.383L439.026 181.262L419.839 148.195L440.137 180.704L430.56 144.32L441.366 180.416L442 143Z" fill="#F9B316"/>
<path d="M1073 126L1073.63 163.416L1084.44 127.32L1074.86 163.704L1095.16 131.195L1075.97 164.262L1104.49 137.383L1076.9 165.055L1111.84 145.495L1077.58 166.033L1116.75 155.021L1077.97 167.134L1118.91 165.363L1078.05 168.29L1118.19 175.87L1077.81 169.428L1114.62 185.883L1077.27 170.476L1108.44 194.772L1076.46 171.368L1100.04 201.979L1075.44 172.049L1089.93 207.051L1074.26 172.475L1078.77 209.669L1073 172.62L1067.23 209.669L1071.74 172.475L1056.07 207.051L1070.56 172.049L1045.96 201.979L1069.54 171.368L1037.56 194.772L1068.73 170.476L1031.38 185.883L1068.19 169.428L1027.81 175.87L1067.95 168.29L1027.09 165.363L1068.03 167.134L1029.25 155.021L1068.42 166.033L1034.16 145.495L1069.1 165.055L1041.51 137.383L1070.03 164.262L1050.84 131.195L1071.14 163.704L1061.56 127.32L1072.37 163.416L1073 126Z" fill="#F9B316"/>
<path d="M981 101L981.634 138.416L992.44 102.32L982.863 138.704L1003.16 106.195L983.974 139.262L1012.49 112.383L984.899 140.055L1019.84 120.495L985.578 141.033L1024.75 130.021L985.97 142.134L1026.91 140.363L986.05 143.29L1026.19 150.87L985.812 144.428L1022.62 160.883L985.272 145.476L1016.44 169.772L984.464 146.368L1008.04 176.979L983.438 147.049L997.934 182.051L982.258 147.475L986.765 184.669L981 147.62L975.235 184.669L979.742 147.475L964.066 182.051L978.562 147.049L953.962 176.979L977.536 146.368L945.556 169.772L976.728 145.476L939.378 160.883L976.188 144.428L935.815 150.87L975.95 143.29L935.091 140.363L976.03 142.134L937.251 130.021L976.422 141.033L942.161 120.495L977.101 140.055L949.511 112.383L978.026 139.262L958.839 106.195L979.137 138.704L969.56 102.32L980.366 138.416L981 101Z" fill="#F9B316"/>
<path d="M75 122L75.6342 159.416L86.4397 123.32L76.8627 159.704L97.1607 127.195L77.9742 160.262L106.489 133.383L78.8988 161.055L113.839 141.495L79.5784 162.033L118.749 151.021L79.9704 163.134L120.909 161.363L80.05 164.29L120.185 171.87L79.8123 165.428L116.622 181.883L79.2723 166.476L110.444 190.772L78.4638 167.368L102.038 197.979L77.4377 168.049L91.9337 203.051L76.2584 168.475L80.7653 205.669L75 168.62L69.2347 205.669L73.7416 168.475L58.0663 203.051L72.5623 168.049L47.9619 197.979L71.5362 167.368L39.5564 190.772L70.7277 166.476L33.378 181.883L70.1877 165.428L29.8148 171.87L69.95 164.29L29.0908 161.363L70.0296 163.134L31.2514 151.021L70.4216 162.033L36.1609 141.495L71.1012 161.055L43.5108 133.383L72.0258 160.262L52.8393 127.195L73.1373 159.704L63.5603 123.32L74.3658 159.416L75 122Z" fill="#F9B316"/>
<path d="M288 -20L288.634 17.4164L299.44 -18.6805L289.863 17.7044L310.161 -14.8049L290.974 18.2623L319.489 -8.61668L291.899 19.0551L326.839 -0.504725L292.578 20.0329L331.749 9.02129L292.97 21.1343L333.909 19.3628L293.05 22.2901L333.185 29.87L292.812 23.4277L329.622 39.8827L292.272 24.4755L323.444 48.7718L291.464 25.3678L315.038 55.9787L290.438 26.0485L304.934 61.0506L289.258 26.4749L293.765 63.6688L288 26.62L282.235 63.6688L286.742 26.4749L271.066 61.0506L285.562 26.0485L260.962 55.9787L284.536 25.3678L252.556 48.7718L283.728 24.4755L246.378 39.8827L283.188 23.4277L242.815 29.87L282.95 22.2901L242.091 19.3628L283.03 21.1343L244.251 9.02129L283.422 20.0329L249.161 -0.504725L284.101 19.0551L256.511 -8.61668L285.026 18.2623L265.839 -14.8049L286.137 17.7044L276.56 -18.6805L287.366 17.4164L288 -20Z" fill="#F9B316"/>
<path d="M736 106L736.634 143.416L747.44 107.32L737.863 143.704L758.161 111.195L738.974 144.262L767.489 117.383L739.899 145.055L774.839 125.495L740.578 146.033L779.749 135.021L740.97 147.134L781.909 145.363L741.05 148.29L781.185 155.87L740.812 149.428L777.622 165.883L740.272 150.476L771.444 174.772L739.464 151.368L763.038 181.979L738.438 152.049L752.934 187.051L737.258 152.475L741.765 189.669L736 152.62L730.235 189.669L734.742 152.475L719.066 187.051L733.562 152.049L708.962 181.979L732.536 151.368L700.556 174.772L731.728 150.476L694.378 165.883L731.188 149.428L690.815 155.87L730.95 148.29L690.091 145.363L731.03 147.134L692.251 135.021L731.422 146.033L697.161 125.495L732.101 145.055L704.511 117.383L733.026 144.262L713.839 111.195L734.137 143.704L724.56 107.32L735.366 143.416L736 106Z" fill="#F9B316"/>
<path d="M704 -22L704.634 15.4164L715.44 -20.6805L705.863 15.7044L726.161 -16.8049L706.974 16.2623L735.489 -10.6167L707.899 17.0551L742.839 -2.50472L708.578 18.0329L747.749 7.02129L708.97 19.1343L749.909 17.3628L709.05 20.2901L749.185 27.87L708.812 21.4277L745.622 37.8827L708.272 22.4755L739.444 46.7718L707.464 23.3678L731.038 53.9787L706.438 24.0485L720.934 59.0506L705.258 24.4749L709.765 61.6688L704 24.62L698.235 61.6688L702.742 24.4749L687.066 59.0506L701.562 24.0485L676.962 53.9787L700.536 23.3678L668.556 46.7718L699.728 22.4755L662.378 37.8827L699.188 21.4277L658.815 27.87L698.95 20.2901L658.091 17.3628L699.03 19.1343L660.251 7.02129L699.422 18.0329L665.161 -2.50472L700.101 17.0551L672.511 -10.6167L701.026 16.2623L681.839 -16.8049L702.137 15.7044L692.56 -20.6805L703.366 15.4164L704 -22Z" fill="#F9B316"/>
<path d="M533 -22L533.634 15.4164L544.44 -20.6805L534.863 15.7044L555.161 -16.8049L535.974 16.2623L564.489 -10.6167L536.899 17.0551L571.839 -2.50472L537.578 18.0329L576.749 7.02129L537.97 19.1343L578.909 17.3628L538.05 20.2901L578.185 27.87L537.812 21.4277L574.622 37.8827L537.272 22.4755L568.444 46.7718L536.464 23.3678L560.038 53.9787L535.438 24.0485L549.934 59.0506L534.258 24.4749L538.765 61.6688L533 24.62L527.235 61.6688L531.742 24.4749L516.066 59.0506L530.562 24.0485L505.962 53.9787L529.536 23.3678L497.556 46.7718L528.728 22.4755L491.378 37.8827L528.188 21.4277L487.815 27.87L527.95 20.2901L487.091 17.3628L528.03 19.1343L489.251 7.02129L528.422 18.0329L494.161 -2.50472L529.101 17.0551L501.511 -10.6167L530.026 16.2623L510.839 -16.8049L531.137 15.7044L521.56 -20.6805L532.366 15.4164L533 -22Z" fill="#F9B316"/>
<path d="M866 124L866.634 161.416L877.44 125.32L867.863 161.704L888.161 129.195L868.974 162.262L897.489 135.383L869.899 163.055L904.839 143.495L870.578 164.033L909.749 153.021L870.97 165.134L911.909 163.363L871.05 166.29L911.185 173.87L870.812 167.428L907.622 183.883L870.272 168.476L901.444 192.772L869.464 169.368L893.038 199.979L868.438 170.049L882.934 205.051L867.258 170.475L871.765 207.669L866 170.62L860.235 207.669L864.742 170.475L849.066 205.051L863.562 170.049L838.962 199.979L862.536 169.368L830.556 192.772L861.728 168.476L824.378 183.883L861.188 167.428L820.815 173.87L860.95 166.29L820.091 163.363L861.03 165.134L822.251 153.021L861.422 164.033L827.161 143.495L862.101 163.055L834.511 135.383L863.026 162.262L843.839 129.195L864.137 161.704L854.56 125.32L865.366 161.416L866 124Z" fill="#F9B316"/>
<path d="M976 0L976.634 37.4164L987.44 1.31951L977.863 37.7044L998.161 5.19512L978.974 38.2623L1007.49 11.3833L979.899 39.0551L1014.84 19.4953L980.578 40.0329L1019.75 29.0213L980.97 41.1343L1021.91 39.3628L981.05 42.2901L1021.19 49.87L980.812 43.4277L1017.62 59.8827L980.272 44.4755L1011.44 68.7718L979.464 45.3678L1003.04 75.9787L978.438 46.0485L992.934 81.0506L977.258 46.4749L981.765 83.6688L976 46.62L970.235 83.6688L974.742 46.4749L959.066 81.0506L973.562 46.0485L948.962 75.9787L972.536 45.3678L940.556 68.7718L971.728 44.4755L934.378 59.8827L971.188 43.4277L930.815 49.87L970.95 42.2901L930.091 39.3628L971.03 41.1343L932.251 29.0213L971.422 40.0329L937.161 19.4953L972.101 39.0551L944.511 11.3833L973.026 38.2623L953.839 5.19512L974.137 37.7044L964.56 1.31951L975.366 37.4164L976 0Z" fill="#F9B316"/>
<path d="M104 20L104.634 57.4164L115.44 21.3195L105.863 57.7044L126.161 25.1951L106.974 58.2623L135.489 31.3833L107.899 59.0551L142.839 39.4953L108.578 60.0329L147.749 49.0213L108.97 61.1343L149.909 59.3628L109.05 62.2901L149.185 69.87L108.812 63.4277L145.622 79.8827L108.272 64.4755L139.444 88.7718L107.464 65.3678L131.038 95.9787L106.438 66.0485L120.934 101.051L105.258 66.4749L109.765 103.669L104 66.62L98.2347 103.669L102.742 66.4749L87.0663 101.051L101.562 66.0485L76.9619 95.9787L100.536 65.3678L68.5564 88.7718L99.7277 64.4755L62.378 79.8827L99.1877 63.4277L58.8148 69.87L98.95 62.2901L58.0908 59.3628L99.0296 61.1343L60.2514 49.0213L99.4216 60.0329L65.1609 39.4953L100.101 59.0551L72.5108 31.3833L101.026 58.2623L81.8393 25.1951L102.137 57.7044L92.5603 21.3195L103.366 57.4164L104 20Z" fill="#F9B316"/>
<path d="M255 125L255.634 162.416L266.44 126.32L256.863 162.704L277.161 130.195L257.974 163.262L286.489 136.383L258.899 164.055L293.839 144.495L259.578 165.033L298.749 154.021L259.97 166.134L300.909 164.363L260.05 167.29L300.185 174.87L259.812 168.428L296.622 184.883L259.272 169.476L290.444 193.772L258.464 170.368L282.038 200.979L257.438 171.049L271.934 206.051L256.258 171.475L260.765 208.669L255 171.62L249.235 208.669L253.742 171.475L238.066 206.051L252.562 171.049L227.962 200.979L251.536 170.368L219.556 193.772L250.728 169.476L213.378 184.883L250.188 168.428L209.815 174.87L249.95 167.29L209.091 164.363L250.03 166.134L211.251 154.021L250.422 165.033L216.161 144.495L251.101 164.055L223.511 136.383L252.026 163.262L232.839 130.195L253.137 162.704L243.56 126.32L254.366 162.416L255 125Z" fill="#F9B316"/>
<path d="M560 104L560.634 141.416L571.44 105.32L561.863 141.704L582.161 109.195L562.974 142.262L591.489 115.383L563.899 143.055L598.839 123.495L564.578 144.033L603.749 133.021L564.97 145.134L605.909 143.363L565.05 146.29L605.185 153.87L564.812 147.428L601.622 163.883L564.272 148.476L595.444 172.772L563.464 149.368L587.038 179.979L562.438 150.049L576.934 185.051L561.258 150.475L565.765 187.669L560 150.62L554.235 187.669L558.742 150.475L543.066 185.051L557.562 150.049L532.962 179.979L556.536 149.368L524.556 172.772L555.728 148.476L518.378 163.883L555.188 147.428L514.815 153.87L554.95 146.29L514.091 143.363L555.03 145.134L516.251 133.021L555.422 144.033L521.161 123.495L556.101 143.055L528.511 115.383L557.026 142.262L537.839 109.195L558.137 141.704L548.56 105.32L559.366 141.416L560 104Z" fill="#F9B316"/>
<path d="M942 50L942.634 87.4164L953.44 51.3195L943.863 87.7044L964.161 55.1951L944.974 88.2623L973.489 61.3833L945.899 89.0551L980.839 69.4953L946.578 90.0329L985.749 79.0213L946.97 91.1343L987.909 89.3628L947.05 92.2901L987.185 99.87L946.812 93.4277L983.622 109.883L946.272 94.4755L977.444 118.772L945.464 95.3678L969.038 125.979L944.438 96.0485L958.934 131.051L943.258 96.4749L947.765 133.669L942 96.62L936.235 133.669L940.742 96.4749L925.066 131.051L939.562 96.0485L914.962 125.979L938.536 95.3678L906.556 118.772L937.728 94.4755L900.378 109.883L937.188 93.4277L896.815 99.87L936.95 92.2901L896.091 89.3628L937.03 91.1343L898.251 79.0213L937.422 90.0329L903.161 69.4953L938.101 89.0551L910.511 61.3833L939.026 88.2623L919.839 55.1951L940.137 87.7044L930.56 51.3195L941.366 87.4164L942 50Z" fill="#F9B316"/>
<path d="M1051 -22L1051.63 15.4164L1062.44 -20.6805L1052.86 15.7044L1073.16 -16.8049L1053.97 16.2623L1082.49 -10.6167L1054.9 17.0551L1089.84 -2.50472L1055.58 18.0329L1094.75 7.02129L1055.97 19.1343L1096.91 17.3628L1056.05 20.2901L1096.19 27.87L1055.81 21.4277L1092.62 37.8827L1055.27 22.4755L1086.44 46.7718L1054.46 23.3678L1078.04 53.9787L1053.44 24.0485L1067.93 59.0506L1052.26 24.4749L1056.77 61.6688L1051 24.62L1045.23 61.6688L1049.74 24.4749L1034.07 59.0506L1048.56 24.0485L1023.96 53.9787L1047.54 23.3678L1015.56 46.7718L1046.73 22.4755L1009.38 37.8827L1046.19 21.4277L1005.81 27.87L1045.95 20.2901L1005.09 17.3628L1046.03 19.1343L1007.25 7.02129L1046.42 18.0329L1012.16 -2.50472L1047.1 17.0551L1019.51 -10.6167L1048.03 16.2623L1028.84 -16.8049L1049.14 15.7044L1039.56 -20.6805L1050.37 15.4164L1051 -22Z" fill="#F9B316"/>
<path d="M185 83L185.634 120.416L196.44 84.3195L186.863 120.704L207.161 88.1951L187.974 121.262L216.489 94.3833L188.899 122.055L223.839 102.495L189.578 123.033L228.749 112.021L189.97 124.134L230.909 122.363L190.05 125.29L230.185 132.87L189.812 126.428L226.622 142.883L189.272 127.476L220.444 151.772L188.464 128.368L212.038 158.979L187.438 129.049L201.934 164.051L186.258 129.475L190.765 166.669L185 129.62L179.235 166.669L183.742 129.475L168.066 164.051L182.562 129.049L157.962 158.979L181.536 128.368L149.556 151.772L180.728 127.476L143.378 142.883L180.188 126.428L139.815 132.87L179.95 125.29L139.091 122.363L180.03 124.134L141.251 112.021L180.422 123.033L146.161 102.495L181.101 122.055L153.511 94.3833L182.026 121.262L162.839 88.1951L183.137 120.704L173.56 84.3195L184.366 120.416L185 83Z" fill="#F9B316"/>
<path d="M213 -11L213.634 26.4164L224.44 -9.68049L214.863 26.7044L235.161 -5.80488L215.974 27.2623L244.489 0.383318L216.899 28.0551L251.839 8.49528L217.578 29.0329L256.749 18.0213L217.97 30.1343L258.909 28.3628L218.05 31.2901L258.185 38.87L217.812 32.4277L254.622 48.8827L217.272 33.4755L248.444 57.7718L216.464 34.3678L240.038 64.9787L215.438 35.0485L229.934 70.0506L214.258 35.4749L218.765 72.6688L213 35.62L207.235 72.6688L211.742 35.4749L196.066 70.0506L210.562 35.0485L185.962 64.9787L209.536 34.3678L177.556 57.7718L208.728 33.4755L171.378 48.8827L208.188 32.4277L167.815 38.87L207.95 31.2901L167.091 28.3628L208.03 30.1343L169.251 18.0213L208.422 29.0329L174.161 8.49528L209.101 28.0551L181.511 0.383318L210.026 27.2623L190.839 -5.80488L211.137 26.7044L201.56 -9.68049L212.366 26.4164L213 -11Z" fill="#F9B316"/>
<path d="M441 -11L441.634 26.4164L452.44 -9.68049L442.863 26.7044L463.161 -5.80488L443.974 27.2623L472.489 0.383318L444.899 28.0551L479.839 8.49528L445.578 29.0329L484.749 18.0213L445.97 30.1343L486.909 28.3628L446.05 31.2901L486.185 38.87L445.812 32.4277L482.622 48.8827L445.272 33.4755L476.444 57.7718L444.464 34.3678L468.038 64.9787L443.438 35.0485L457.934 70.0506L442.258 35.4749L446.765 72.6688L441 35.62L435.235 72.6688L439.742 35.4749L424.066 70.0506L438.562 35.0485L413.962 64.9787L437.536 34.3678L405.556 57.7718L436.728 33.4755L399.378 48.8827L436.188 32.4277L395.815 38.87L435.95 31.2901L395.091 28.3628L436.03 30.1343L397.251 18.0213L436.422 29.0329L402.161 8.49528L437.101 28.0551L409.511 0.383318L438.026 27.2623L418.839 -5.80488L439.137 26.7044L429.56 -9.68049L440.366 26.4164L441 -11Z" fill="#F9B316"/>
<path d="M839 73L839.634 110.416L850.44 74.3195L840.863 110.704L861.161 78.1951L841.974 111.262L870.489 84.3833L842.899 112.055L877.839 92.4953L843.578 113.033L882.749 102.021L843.97 114.134L884.909 112.363L844.05 115.29L884.185 122.87L843.812 116.428L880.622 132.883L843.272 117.476L874.444 141.772L842.464 118.368L866.038 148.979L841.438 119.049L855.934 154.051L840.258 119.475L844.765 156.669L839 119.62L833.235 156.669L837.742 119.475L822.066 154.051L836.562 119.049L811.962 148.979L835.536 118.368L803.556 141.772L834.728 117.476L797.378 132.883L834.188 116.428L793.815 122.87L833.95 115.29L793.091 112.363L834.03 114.134L795.251 102.021L834.422 113.033L800.161 92.4953L835.101 112.055L807.511 84.3833L836.026 111.262L816.839 78.1951L837.137 110.704L827.56 74.3195L838.366 110.416L839 73Z" fill="#F9B316"/>
<path d="M765 31L765.634 68.4164L776.44 32.3195L766.863 68.7044L787.161 36.1951L767.974 69.2623L796.489 42.3833L768.899 70.0551L803.839 50.4953L769.578 71.0329L808.749 60.0213L769.97 72.1343L810.909 70.3628L770.05 73.2901L810.185 80.87L769.812 74.4277L806.622 90.8827L769.272 75.4755L800.444 99.7718L768.464 76.3678L792.038 106.979L767.438 77.0485L781.934 112.051L766.258 77.4749L770.765 114.669L765 77.62L759.235 114.669L763.742 77.4749L748.066 112.051L762.562 77.0485L737.962 106.979L761.536 76.3678L729.556 99.7718L760.728 75.4755L723.378 90.8827L760.188 74.4277L719.815 80.87L759.95 73.2901L719.091 70.3628L760.03 72.1343L721.251 60.0213L760.422 71.0329L726.161 50.4953L761.101 70.0551L733.511 42.3833L762.026 69.2623L742.839 36.1951L763.137 68.7044L753.56 32.3195L764.366 68.4164L765 31Z" fill="#F9B316"/>
</g>
<defs>
<clipPath id="clip0_29_54">
<rect width="1119" height="185" fill="white"/>
</clipPath>
</defs>
</svg>
